<svg xmlns="http://www.w3.org/2000/svg" xmlns:xlink="http://www.w3.org/1999/xlink" x="0" y="0" width="661.3333740234375" height="296" style="
        width:661.3333740234375px;
        height:296px;
        background: transparent;
        fill: none;
">
        <svg xmlns="http://www.w3.org/2000/svg"/>
        
        <svg xmlns="http://www.w3.org/2000/svg" class="role-diagram-draw-area"><g class="shapes-region" style="stroke: black; fill: none;"><g class="arrow-line"><path class="connection real" stroke-dasharray="" d="  M152,126 L152,167.67" style="stroke: rgb(0, 0, 0); stroke-width: 1; fill: none; fill-opacity: 1;"/><g stroke="#000" transform="matrix(-1.8369701987210297e-16,-1,1,-1.8369701987210297e-16,152,169.6666564941406)" style="stroke: rgb(0, 0, 0); stroke-width: 1;"><path d=" M10.93,-3.29 Q4.96,-0.45 0,0 Q4.96,0.45 10.93,3.29"/></g></g><g class="arrow-line"><path class="connection real" stroke-dasharray="" d="  M235,126 L235,167.67" style="stroke: rgb(0, 0, 0); stroke-width: 1; fill: none; fill-opacity: 1;"/><g stroke="#000" transform="matrix(-1.8369701987210297e-16,-1,1,-1.8369701987210297e-16,235,169.6666564941406)" style="stroke: rgb(0, 0, 0); stroke-width: 1;"><path d=" M10.93,-3.29 Q4.96,-0.45 0,0 Q4.96,0.45 10.93,3.29"/></g></g><g class="arrow-line"><path class="connection real" stroke-dasharray="" d="  M382,126 L382,167.67" style="stroke: rgb(0, 0, 0); stroke-width: 1; fill: none; fill-opacity: 1;"/><g stroke="#000" transform="matrix(-1.8369701987210297e-16,-1,1,-1.8369701987210297e-16,382,169.66665649414057)" style="stroke: rgb(0, 0, 0); stroke-width: 1;"><path d=" M10.93,-3.29 Q4.96,-0.45 0,0 Q4.96,0.45 10.93,3.29"/></g></g><g class="arrow-line"><path class="connection real" stroke-dasharray="" d="  M472,126 L472,167.67" style="stroke: rgb(0, 0, 0); stroke-width: 1; fill: none; fill-opacity: 1;"/><g stroke="#000" transform="matrix(-1.8369701987210297e-16,-1,1,-1.8369701987210297e-16,472,169.66665649414057)" style="stroke: rgb(0, 0, 0); stroke-width: 1;"><path d=" M10.93,-3.29 Q4.96,-0.45 0,0 Q4.96,0.45 10.93,3.29"/></g></g><g class="arrow-line"><path class="connection real" stroke-dasharray="" d="  M71.33,119.32 C29.67,120.65 24.33,186.32 70.33,186.32" style="stroke: rgb(0, 0, 0); stroke-width: 1; fill: none; fill-opacity: 1;"/></g><g class="arrow-line"><path class="connection real" stroke-dasharray="" d="  M70.33,186.32 L74,186.32" style="stroke: rgb(0, 0, 0); stroke-width: 1; fill: none; fill-opacity: 1;"/><g stroke="#000" transform="matrix(-1,1.2246467991473532e-16,-1.2246467991473532e-16,-1,76,186.32290649414062)" style="stroke: rgb(0, 0, 0); stroke-width: 1;"><path d=" M10.93,-3.29 Q4.96,-0.45 0,0 Q4.96,0.45 10.93,3.29"/></g></g><g class="arrow-line"><path class="connection real" stroke-dasharray="" d="  M152,54 L152,95.67" style="stroke: rgb(0, 0, 0); stroke-width: 1; fill: none; fill-opacity: 1;"/><g stroke="#000" transform="matrix(-1.8369701987210297e-16,-1,1,-1.8369701987210297e-16,152,97.66665649414062)" style="stroke: rgb(0, 0, 0); stroke-width: 1;"><path d=" M10.93,-3.29 Q4.96,-0.45 0,0 Q4.96,0.45 10.93,3.29"/></g></g><g class="arrow-line"><path class="connection real" stroke-dasharray="" d="  M235,54 L235,95.67" style="stroke: rgb(0, 0, 0); stroke-width: 1; fill: none; fill-opacity: 1;"/><g stroke="#000" transform="matrix(-1.8369701987210297e-16,-1,1,-1.8369701987210297e-16,235,97.6666564941406)" style="stroke: rgb(0, 0, 0); stroke-width: 1;"><path d=" M10.93,-3.29 Q4.96,-0.45 0,0 Q4.96,0.45 10.93,3.29"/></g></g><g class="arrow-line"><path class="connection real" stroke-dasharray="" d="  M382,54 L382,95.67" style="stroke: rgb(0, 0, 0); stroke-width: 1; fill: none; fill-opacity: 1;"/><g stroke="#000" transform="matrix(-1.8369701987210297e-16,-1,1,-1.8369701987210297e-16,382,97.66665649414062)" style="stroke: rgb(0, 0, 0); stroke-width: 1;"><path d=" M10.93,-3.29 Q4.96,-0.45 0,0 Q4.96,0.45 10.93,3.29"/></g></g><g class="arrow-line"><path class="connection real" stroke-dasharray="" d="  M472,54 L472,95.67" style="stroke: rgb(0, 0, 0); stroke-width: 1; fill: none; fill-opacity: 1;"/><g stroke="#000" transform="matrix(-1.8369701987210297e-16,-1,1,-1.8369701987210297e-16,472,97.66665649414062)" style="stroke: rgb(0, 0, 0); stroke-width: 1;"><path d=" M10.93,-3.29 Q4.96,-0.45 0,0 Q4.96,0.45 10.93,3.29"/></g></g><g class="arrow-line"><path class="connection real" stroke-dasharray="" d="  M152,199 L152,240.67" style="stroke: rgb(0, 0, 0); stroke-width: 1; fill: none; fill-opacity: 1;"/><g stroke="#000" transform="matrix(-1.8369701987210297e-16,-1,1,-1.8369701987210297e-16,152,242.66665649414062)" style="stroke: rgb(0, 0, 0); stroke-width: 1;"><path d=" M10.93,-3.29 Q4.96,-0.45 0,0 Q4.96,0.45 10.93,3.29"/></g></g><g class="arrow-line"><path class="connection real" stroke-dasharray="" d="  M235,199 L235,240.67" style="stroke: rgb(0, 0, 0); stroke-width: 1; fill: none; fill-opacity: 1;"/><g stroke="#000" transform="matrix(-1.8369701987210297e-16,-1,1,-1.8369701987210297e-16,235,242.66665649414062)" style="stroke: rgb(0, 0, 0); stroke-width: 1;"><path d=" M10.93,-3.29 Q4.96,-0.45 0,0 Q4.96,0.45 10.93,3.29"/></g></g><g class="arrow-line"><path class="connection real" stroke-dasharray="" d="  M382,199 L382,240.67" style="stroke: rgb(0, 0, 0); stroke-width: 1; fill: none; fill-opacity: 1;"/><g stroke="#000" transform="matrix(-1.8369701987210297e-16,-1,1,-1.8369701987210297e-16,382,242.66665649414057)" style="stroke: rgb(0, 0, 0); stroke-width: 1;"><path d=" M10.93,-3.29 Q4.96,-0.45 0,0 Q4.96,0.45 10.93,3.29"/></g></g><g class="arrow-line"><path class="connection real" stroke-dasharray="" d="  M472,199 L472,240.67" style="stroke: rgb(0, 0, 0); stroke-width: 1; fill: none; fill-opacity: 1;"/><g stroke="#000" transform="matrix(-1.8369701987210297e-16,-1,1,-1.8369701987210297e-16,472,242.66665649414057)" style="stroke: rgb(0, 0, 0); stroke-width: 1;"><path d=" M10.93,-3.29 Q4.96,-0.45 0,0 Q4.96,0.45 10.93,3.29"/></g></g><g/></g><g/><g/><g/></svg>
        <svg xmlns="http://www.w3.org/2000/svg" xmlns:xlink="http://www.w3.org/1999/xlink" width="660" height="294.66668701171875" style="width:660px;height:294.66668701171875px;font-family:Asana-Math, Asana;background:transparent;"><g><g><g><g transform="matrix(1,0,0,1,87.66665649414062,117.39584350585938)"><path transform="matrix(0.017,0,0,-0.017,0,0)" d="M263 689C108 689 29 566 29 324C29 207 50 106 85 57C120 8 176 -20 238 -20C389 -20 465 110 465 366C465 585 400 689 263 689ZM245 654C342 654 381 556 381 316C381 103 343 15 251 15C154 15 113 116 113 360C113 571 150 654 245 654Z" stroke="rgb(0,0,0)" stroke-opacity="1" stroke-width="8" fill="rgb(0,0,0)" fill-opacity="1"></path></g></g><g><g transform="matrix(1,0,0,1,101.25,117.39584350585938)"><path transform="matrix(0.017,0,0,-0.017,0,0)" d="M65 302L65 243L1330 243L1205 91L1237 57L1444 274L1237 488L1205 454L1330 302Z" stroke="rgb(0,0,0)" stroke-opacity="1" stroke-width="8" fill="rgb(0,0,0)" fill-opacity="1"></path></g></g><g><g transform="matrix(1,0,0,1,132.07293701171875,117.39584350585938)"><path transform="matrix(0.017,0,0,-0.017,0,0)" d="M567 55C567 39 552 30 524 28L480 25L480 -3C582 0 582 0 602 0C622 0 622 0 724 -3L724 25L698 28C651 35 650 35 642 80L555 705L509 705L136 112C100 56 82 40 48 32L28 27L28 -3C120 0 120 0 140 0C159 0 161 0 247 -3L247 25L195 28C179 29 164 38 164 47C164 55 171 69 190 102L292 277L538 277L563 89L563 86C563 84 567 69 567 55ZM496 601L533 313L317 313Z" stroke="rgb(0,0,0)" stroke-opacity="1" stroke-width="8" fill="rgb(0,0,0)" fill-opacity="1"></path></g></g><g><g><g><g><g transform="matrix(1,0,0,1,145.8125,111.36875)"><path transform="matrix(0.0119,0,0,-0.0119,0,0)" d="M263 689C108 689 29 566 29 324C29 207 50 106 85 57C120 8 176 -20 238 -20C389 -20 465 110 465 366C465 585 400 689 263 689ZM245 654C342 654 381 556 381 316C381 103 343 15 251 15C154 15 113 116 113 360C113 571 150 654 245 654Z" stroke="rgb(0,0,0)" stroke-opacity="1" stroke-width="8" fill="rgb(0,0,0)" fill-opacity="1"></path></g></g></g></g></g><g><g transform="matrix(1,0,0,1,152.76043701171875,118.0625)"><path transform="matrix(0.017,0,0,-0.017,0,0)" d="M146 266C146 526 243 632 301 700L282 726C225 675 60 542 60 266C60 159 85 58 133 -32C168 -99 200 -138 282 -215L301 -194C255 -137 146 -15 146 266Z" stroke="rgb(0,0,0)" stroke-opacity="1" stroke-width="8" fill="rgb(0,0,0)" fill-opacity="1"></path></g></g><g><g transform="matrix(1,0,0,1,158.40625,117.39584350585938)"><path transform="matrix(0.017,0,0,-0.017,0,0)" d="M582 103L237 692L75 692L70 664L105 662C150 660 184 615 185 606L92 102C80 40 74 32 38 28L7 25L2 -3L113 0C125 0 126 0 223 -3L228 25L186 28C146 31 137 39 137 72C137 80 138 91 140 102L220 566L558 -11L608 -11L702 542C723 655 725 659 762 662L799 664L802 691L589 692L584 664L631 662C657 661 667 654 667 638C667 631 584 116 582 103Z" stroke="rgb(0,0,0)" stroke-opacity="1" stroke-width="8" fill="rgb(0,0,0)" fill-opacity="1"></path></g></g><g><g transform="matrix(1,0,0,1,171.625,118.0625)"><path transform="matrix(0.017,0,0,-0.017,0,0)" d="M51 726L32 700C87 636 187 526 187 266C187 -10 83 -131 32 -194L51 -215C104 -165 273 -23 273 265C273 542 108 675 51 726Z" stroke="rgb(0,0,0)" stroke-opacity="1" stroke-width="8" fill="rgb(0,0,0)" fill-opacity="1"></path></g></g><g><g transform="matrix(1,0,0,1,177.27081298828125,117.39584350585938)"><path transform="matrix(0.017,0,0,-0.017,0,0)" d="" stroke="rgb(0,0,0)" stroke-opacity="1" stroke-width="8" fill="rgb(0,0,0)" fill-opacity="1"></path></g></g><g><g><g><g><g transform="matrix(1,0,0,1,193.72918701171875,98.025)"><path transform="matrix(0.0119,0,0,-0.0119,0,0)" d="M483 722L471 733C419 707 383 698 311 691L307 670L355 670C379 670 389 663 389 646C389 638 388 629 387 622L359 468C329 477 302 482 277 482C208 482 114 410 68 323C37 265 17 170 17 86C17 21 32 -11 61 -11C88 -11 125 6 159 33C213 77 246 116 313 217L290 126C279 82 274 50 274 24C274 3 283 -9 300 -9C317 -9 341 3 375 28L456 88L446 107L402 76C388 66 372 59 363 59C355 59 349 68 349 82C349 90 350 99 357 128ZM114 59C98 59 89 73 89 98C89 224 135 380 184 418C197 428 216 433 243 433C287 433 316 427 349 410L337 351C300 171 159 59 114 59Z" stroke="rgb(0,0,0)" stroke-opacity="1" stroke-width="8" fill="rgb(0,0,0)" fill-opacity="1"></path></g></g><g><g><g><g><g transform="matrix(1,0,0,1,200.34375,93.99667175292969)"><path transform="matrix(0.00833,0,0,-0.00833,0,0)" d="M263 689C108 689 29 566 29 324C29 207 50 106 85 57C120 8 176 -20 238 -20C389 -20 465 110 465 366C465 585 400 689 263 689ZM245 654C342 654 381 556 381 316C381 103 343 15 251 15C154 15 113 116 113 360C113 571 150 654 245 654Z" stroke="rgb(0,0,0)" stroke-opacity="1" stroke-width="8" fill="rgb(0,0,0)" fill-opacity="1"></path></g></g></g></g></g></g></g><g><g><g><g transform="matrix(1,0,0,1,186.60418701171875,117.39584350585938)"><path transform="matrix(0.017,0,0,-0.017,0,0)" d="M65 302L65 243L1330 243L1205 91L1237 57L1444 274L1237 488L1205 454L1330 302Z" stroke="rgb(0,0,0)" stroke-opacity="1" stroke-width="8" fill="rgb(0,0,0)" fill-opacity="1"></path></g></g></g></g></g><g><g transform="matrix(1,0,0,1,217.42706298828125,117.39584350585938)"><path transform="matrix(0.017,0,0,-0.017,0,0)" d="M567 55C567 39 552 30 524 28L480 25L480 -3C582 0 582 0 602 0C622 0 622 0 724 -3L724 25L698 28C651 35 650 35 642 80L555 705L509 705L136 112C100 56 82 40 48 32L28 27L28 -3C120 0 120 0 140 0C159 0 161 0 247 -3L247 25L195 28C179 29 164 38 164 47C164 55 171 69 190 102L292 277L538 277L563 89L563 86C563 84 567 69 567 55ZM496 601L533 313L317 313Z" stroke="rgb(0,0,0)" stroke-opacity="1" stroke-width="8" fill="rgb(0,0,0)" fill-opacity="1"></path></g></g><g><g><g><g><g transform="matrix(1,0,0,1,231.16668701171875,111.36875)"><path transform="matrix(0.0119,0,0,-0.0119,0,0)" d="M418 -3L418 27L366 30C311 33 301 44 301 96L301 700L60 598L67 548L217 614L217 96C217 44 206 33 152 30L96 27L96 -3C250 0 250 0 261 0C292 0 402 -3 418 -3Z" stroke="rgb(0,0,0)" stroke-opacity="1" stroke-width="8" fill="rgb(0,0,0)" fill-opacity="1"></path></g></g></g></g></g><g><g transform="matrix(1,0,0,1,238.11456298828125,118.0625)"><path transform="matrix(0.017,0,0,-0.017,0,0)" d="M146 266C146 526 243 632 301 700L282 726C225 675 60 542 60 266C60 159 85 58 133 -32C168 -99 200 -138 282 -215L301 -194C255 -137 146 -15 146 266Z" stroke="rgb(0,0,0)" stroke-opacity="1" stroke-width="8" fill="rgb(0,0,0)" fill-opacity="1"></path></g></g><g><g transform="matrix(1,0,0,1,243.76043701171875,117.39584350585938)"><path transform="matrix(0.017,0,0,-0.017,0,0)" d="M582 103L237 692L75 692L70 664L105 662C150 660 184 615 185 606L92 102C80 40 74 32 38 28L7 25L2 -3L113 0C125 0 126 0 223 -3L228 25L186 28C146 31 137 39 137 72C137 80 138 91 140 102L220 566L558 -11L608 -11L702 542C723 655 725 659 762 662L799 664L802 691L589 692L584 664L631 662C657 661 667 654 667 638C667 631 584 116 582 103Z" stroke="rgb(0,0,0)" stroke-opacity="1" stroke-width="8" fill="rgb(0,0,0)" fill-opacity="1"></path></g></g><g><g transform="matrix(1,0,0,1,256.97918701171875,118.0625)"><path transform="matrix(0.017,0,0,-0.017,0,0)" d="M51 726L32 700C87 636 187 526 187 266C187 -10 83 -131 32 -194L51 -215C104 -165 273 -23 273 265C273 542 108 675 51 726Z" stroke="rgb(0,0,0)" stroke-opacity="1" stroke-width="8" fill="rgb(0,0,0)" fill-opacity="1"></path></g></g><g><g><g><g><g transform="matrix(1,0,0,1,274.84375,98.025)"><path transform="matrix(0.0119,0,0,-0.0119,0,0)" d="M483 722L471 733C419 707 383 698 311 691L307 670L355 670C379 670 389 663 389 646C389 638 388 629 387 622L359 468C329 477 302 482 277 482C208 482 114 410 68 323C37 265 17 170 17 86C17 21 32 -11 61 -11C88 -11 125 6 159 33C213 77 246 116 313 217L290 126C279 82 274 50 274 24C274 3 283 -9 300 -9C317 -9 341 3 375 28L456 88L446 107L402 76C388 66 372 59 363 59C355 59 349 68 349 82C349 90 350 99 357 128ZM114 59C98 59 89 73 89 98C89 224 135 380 184 418C197 428 216 433 243 433C287 433 316 427 349 410L337 351C300 171 159 59 114 59Z" stroke="rgb(0,0,0)" stroke-opacity="1" stroke-width="8" fill="rgb(0,0,0)" fill-opacity="1"></path></g></g><g><g><g><g><g transform="matrix(1,0,0,1,281.45831298828125,93.99667175292969)"><path transform="matrix(0.00833,0,0,-0.00833,0,0)" d="M418 -3L418 27L366 30C311 33 301 44 301 96L301 700L60 598L67 548L217 614L217 96C217 44 206 33 152 30L96 27L96 -3C250 0 250 0 261 0C292 0 402 -3 418 -3Z" stroke="rgb(0,0,0)" stroke-opacity="1" stroke-width="8" fill="rgb(0,0,0)" fill-opacity="1"></path></g></g></g></g></g></g></g><g><g><g><g transform="matrix(1,0,0,1,267.71875,117.39584350585938)"><path transform="matrix(0.017,0,0,-0.017,0,0)" d="M65 302L65 243L1330 243L1205 91L1237 57L1444 274L1237 488L1205 454L1330 302Z" stroke="rgb(0,0,0)" stroke-opacity="1" stroke-width="8" fill="rgb(0,0,0)" fill-opacity="1"></path></g></g></g></g></g><g><g transform="matrix(1,0,0,1,303.63543701171875,117.39584350585938)"><path transform="matrix(0.017,0,0,-0.017,0,0)" d="M499 329C469 329 442 301 442 271C442 241 469 213 498 213C530 213 558 240 558 271C558 301 530 329 499 329ZM166 329C136 329 109 301 109 271C109 241 136 213 165 213C197 213 225 240 225 271C225 301 197 329 166 329ZM832 329C802 329 775 301 775 271C775 241 802 213 831 213C863 213 891 240 891 271C891 301 863 329 832 329Z" stroke="rgb(0,0,0)" stroke-opacity="1" stroke-width="8" fill="rgb(0,0,0)" fill-opacity="1"></path></g></g><g><g><g><g><g transform="matrix(1,0,0,1,333.47918701171875,98.025)"><path transform="matrix(0.0119,0,0,-0.0119,0,0)" d="M483 722L471 733C419 707 383 698 311 691L307 670L355 670C379 670 389 663 389 646C389 638 388 629 387 622L359 468C329 477 302 482 277 482C208 482 114 410 68 323C37 265 17 170 17 86C17 21 32 -11 61 -11C88 -11 125 6 159 33C213 77 246 116 313 217L290 126C279 82 274 50 274 24C274 3 283 -9 300 -9C317 -9 341 3 375 28L456 88L446 107L402 76C388 66 372 59 363 59C355 59 349 68 349 82C349 90 350 99 357 128ZM114 59C98 59 89 73 89 98C89 224 135 380 184 418C197 428 216 433 243 433C287 433 316 427 349 410L337 351C300 171 159 59 114 59Z" stroke="rgb(0,0,0)" stroke-opacity="1" stroke-width="8" fill="rgb(0,0,0)" fill-opacity="1"></path></g></g><g><g><g><g><g transform="matrix(1,0,0,1,340.09375,93.99667175292969)"><path transform="matrix(0.00833,0,0,-0.00833,0,0)" d="M240 722L228 733C176 707 140 698 68 691L64 670L112 670C136 670 146 663 146 646C146 638 145 629 144 622L96 354C82 279 66 210 14 1L23 -9L90 8L113 132C122 180 146 225 180 259C249 59 281 -9 306 -9C319 -9 343 4 387 35L433 67L425 86L382 62C368 54 361 52 353 52C343 52 336 58 327 75C292 139 270 193 231 316L245 330C306 391 352 416 402 416C410 416 421 414 438 410L455 473C437 479 419 482 407 482C341 482 258 405 133 230ZM1023 243L1023 299L519 299L519 243ZM1491 -3L1491 27L1439 30C1384 33 1374 44 1374 96L1374 700L1133 598L1140 548L1290 614L1290 96C1290 44 1279 33 1225 30L1169 27L1169 -3C1323 0 1323 0 1334 0C1365 0 1475 -3 1491 -3Z" stroke="rgb(0,0,0)" stroke-opacity="1" stroke-width="8" fill="rgb(0,0,0)" fill-opacity="1"></path></g></g></g></g></g></g></g><g><g><g><g transform="matrix(1,0,0,1,330.82293701171875,117.39584350585938)"><path transform="matrix(0.017,0,0,-0.017,0,0)" d="M65 302L65 243L1330 243L1205 91L1237 57L1444 274L1237 488L1205 454L1330 302Z" stroke="rgb(0,0,0)" stroke-opacity="1" stroke-width="8" fill="rgb(0,0,0)" fill-opacity="1"></path></g></g></g></g></g><g><g transform="matrix(1,0,0,1,361.64581298828125,117.39584350585938)"><path transform="matrix(0.017,0,0,-0.017,0,0)" d="M567 55C567 39 552 30 524 28L480 25L480 -3C582 0 582 0 602 0C622 0 622 0 724 -3L724 25L698 28C651 35 650 35 642 80L555 705L509 705L136 112C100 56 82 40 48 32L28 27L28 -3C120 0 120 0 140 0C159 0 161 0 247 -3L247 25L195 28C179 29 164 38 164 47C164 55 171 69 190 102L292 277L538 277L563 89L563 86C563 84 567 69 567 55ZM496 601L533 313L317 313Z" stroke="rgb(0,0,0)" stroke-opacity="1" stroke-width="8" fill="rgb(0,0,0)" fill-opacity="1"></path></g></g><g><g><g><g><g transform="matrix(1,0,0,1,375.38543701171875,111.36875)"><path transform="matrix(0.0119,0,0,-0.0119,0,0)" d="M240 722L228 733C176 707 140 698 68 691L64 670L112 670C136 670 146 663 146 646C146 638 145 629 144 622L96 354C82 279 66 210 14 1L23 -9L90 8L113 132C122 180 146 225 180 259C249 59 281 -9 306 -9C319 -9 343 4 387 35L433 67L425 86L382 62C368 54 361 52 353 52C343 52 336 58 327 75C292 139 270 193 231 316L245 330C306 391 352 416 402 416C410 416 421 414 438 410L455 473C437 479 419 482 407 482C341 482 258 405 133 230Z" stroke="rgb(0,0,0)" stroke-opacity="1" stroke-width="8" fill="rgb(0,0,0)" fill-opacity="1"></path></g></g></g></g></g><g><g transform="matrix(1,0,0,1,381.96875,118.0625)"><path transform="matrix(0.017,0,0,-0.017,0,0)" d="M146 266C146 526 243 632 301 700L282 726C225 675 60 542 60 266C60 159 85 58 133 -32C168 -99 200 -138 282 -215L301 -194C255 -137 146 -15 146 266Z" stroke="rgb(0,0,0)" stroke-opacity="1" stroke-width="8" fill="rgb(0,0,0)" fill-opacity="1"></path></g></g><g><g transform="matrix(1,0,0,1,387.61456298828125,117.39584350585938)"><path transform="matrix(0.017,0,0,-0.017,0,0)" d="M582 103L237 692L75 692L70 664L105 662C150 660 184 615 185 606L92 102C80 40 74 32 38 28L7 25L2 -3L113 0C125 0 126 0 223 -3L228 25L186 28C146 31 137 39 137 72C137 80 138 91 140 102L220 566L558 -11L608 -11L702 542C723 655 725 659 762 662L799 664L802 691L589 692L584 664L631 662C657 661 667 654 667 638C667 631 584 116 582 103Z" stroke="rgb(0,0,0)" stroke-opacity="1" stroke-width="8" fill="rgb(0,0,0)" fill-opacity="1"></path></g></g><g><g transform="matrix(1,0,0,1,400.83331298828125,118.0625)"><path transform="matrix(0.017,0,0,-0.017,0,0)" d="M51 726L32 700C87 636 187 526 187 266C187 -10 83 -131 32 -194L51 -215C104 -165 273 -23 273 265C273 542 108 675 51 726Z" stroke="rgb(0,0,0)" stroke-opacity="1" stroke-width="8" fill="rgb(0,0,0)" fill-opacity="1"></path></g></g><g><g><g><g><g transform="matrix(1,0,0,1,418.82293701171875,98.025)"><path transform="matrix(0.0119,0,0,-0.0119,0,0)" d="M483 722L471 733C419 707 383 698 311 691L307 670L355 670C379 670 389 663 389 646C389 638 388 629 387 622L359 468C329 477 302 482 277 482C208 482 114 410 68 323C37 265 17 170 17 86C17 21 32 -11 61 -11C88 -11 125 6 159 33C213 77 246 116 313 217L290 126C279 82 274 50 274 24C274 3 283 -9 300 -9C317 -9 341 3 375 28L456 88L446 107L402 76C388 66 372 59 363 59C355 59 349 68 349 82C349 90 350 99 357 128ZM114 59C98 59 89 73 89 98C89 224 135 380 184 418C197 428 216 433 243 433C287 433 316 427 349 410L337 351C300 171 159 59 114 59Z" stroke="rgb(0,0,0)" stroke-opacity="1" stroke-width="8" fill="rgb(0,0,0)" fill-opacity="1"></path></g></g><g><g><g><g><g transform="matrix(1,0,0,1,425.4375,93.99667175292969)"><path transform="matrix(0.00833,0,0,-0.00833,0,0)" d="M240 722L228 733C176 707 140 698 68 691L64 670L112 670C136 670 146 663 146 646C146 638 145 629 144 622L96 354C82 279 66 210 14 1L23 -9L90 8L113 132C122 180 146 225 180 259C249 59 281 -9 306 -9C319 -9 343 4 387 35L433 67L425 86L382 62C368 54 361 52 353 52C343 52 336 58 327 75C292 139 270 193 231 316L245 330C306 391 352 416 402 416C410 416 421 414 438 410L455 473C437 479 419 482 407 482C341 482 258 405 133 230Z" stroke="rgb(0,0,0)" stroke-opacity="1" stroke-width="8" fill="rgb(0,0,0)" fill-opacity="1"></path></g></g></g></g></g></g></g><g><g><g><g transform="matrix(1,0,0,1,411.57293701171875,117.39584350585938)"><path transform="matrix(0.017,0,0,-0.017,0,0)" d="M65 302L65 243L1330 243L1205 91L1237 57L1444 274L1237 488L1205 454L1330 302Z" stroke="rgb(0,0,0)" stroke-opacity="1" stroke-width="8" fill="rgb(0,0,0)" fill-opacity="1"></path></g></g></g></g></g><g><g transform="matrix(1,0,0,1,442.39581298828125,117.39584350585938)"><path transform="matrix(0.017,0,0,-0.017,0,0)" d="M816 55C816 39 801 30 773 28L729 25L729 -3C831 0 831 0 851 0C871 0 871 0 973 -3L973 25L947 28C900 35 899 35 891 80L804 705L758 705L385 112C349 56 331 40 297 32L277 27L277 -3C369 0 369 0 389 0C408 0 410 0 496 -3L496 25L444 28C428 29 413 38 413 47C413 55 420 69 439 102L541 277L787 277L812 89L812 86C812 84 816 69 816 55ZM745 601L782 313L566 313Z" stroke="rgb(0,0,0)" stroke-opacity="1" stroke-width="8" fill="rgb(0,0,0)" fill-opacity="1"></path></g></g><g><g><g><g><g transform="matrix(1,0,0,1,460.36456298828125,110.70209350585938)"><path transform="matrix(0.0119,0,0,-0.0119,0,0)" d="M240 722L228 733C176 707 140 698 68 691L64 670L112 670C136 670 146 663 146 646C146 638 145 629 144 622L96 354C82 279 66 210 14 1L23 -9L90 8L113 132C122 180 146 225 180 259C249 59 281 -9 306 -9C319 -9 343 4 387 35L433 67L425 86L382 62C368 54 361 52 353 52C343 52 336 58 327 75C292 139 270 193 231 316L245 330C306 391 352 416 402 416C410 416 421 414 438 410L455 473C437 479 419 482 407 482C341 482 258 405 133 230ZM1072 241L1072 300L832 300L832 538L773 538L773 300L533 300L533 241L773 241L773 0L832 0L832 241ZM1554 -3L1554 27L1502 30C1447 33 1437 44 1437 96L1437 700L1196 598L1203 548L1353 614L1353 96C1353 44 1342 33 1288 30L1232 27L1232 -3C1386 0 1386 0 1397 0C1428 0 1538 -3 1554 -3Z" stroke="rgb(0,0,0)" stroke-opacity="1" stroke-width="8" fill="rgb(0,0,0)" fill-opacity="1"></path></g></g></g></g></g><g><g transform="matrix(1,0,0,1,480.82293701171875,118.0625)"><path transform="matrix(0.017,0,0,-0.017,0,0)" d="M146 266C146 526 243 632 301 700L282 726C225 675 60 542 60 266C60 159 85 58 133 -32C168 -99 200 -138 282 -215L301 -194C255 -137 146 -15 146 266Z" stroke="rgb(0,0,0)" stroke-opacity="1" stroke-width="8" fill="rgb(0,0,0)" fill-opacity="1"></path></g></g><g><g transform="matrix(1,0,0,1,486.46875,117.39584350585938)"><path transform="matrix(0.017,0,0,-0.017,0,0)" d="M582 103L237 692L75 692L70 664L105 662C150 660 184 615 185 606L92 102C80 40 74 32 38 28L7 25L2 -3L113 0C125 0 126 0 223 -3L228 25L186 28C146 31 137 39 137 72C137 80 138 91 140 102L220 566L558 -11L608 -11L702 542C723 655 725 659 762 662L799 664L802 691L589 692L584 664L631 662C657 661 667 654 667 638C667 631 584 116 582 103Z" stroke="rgb(0,0,0)" stroke-opacity="1" stroke-width="8" fill="rgb(0,0,0)" fill-opacity="1"></path></g></g><g><g transform="matrix(1,0,0,1,499.6875,118.0625)"><path transform="matrix(0.017,0,0,-0.017,0,0)" d="M51 726L32 700C87 636 187 526 187 266C187 -10 83 -131 32 -194L51 -215C104 -165 273 -23 273 265C273 542 108 675 51 726Z" stroke="rgb(0,0,0)" stroke-opacity="1" stroke-width="8" fill="rgb(0,0,0)" fill-opacity="1"></path></g></g><g><g transform="matrix(1,0,0,1,505.33331298828125,117.39584350585938)"><path transform="matrix(0.017,0,0,-0.017,0,0)" d="" stroke="rgb(0,0,0)" stroke-opacity="1" stroke-width="8" fill="rgb(0,0,0)" fill-opacity="1"></path></g></g><g><g transform="matrix(1,0,0,1,514.6666870117188,117.39584350585938)"><path transform="matrix(0.017,0,0,-0.017,0,0)" d="M65 302L65 243L1330 243L1205 91L1237 57L1444 274L1237 488L1205 454L1330 302ZM2012 329C1982 329 1955 301 1955 271C1955 241 1982 213 2011 213C2043 213 2071 240 2071 271C2071 301 2043 329 2012 329ZM1679 329C1649 329 1622 301 1622 271C1622 241 1649 213 1678 213C1710 213 1738 240 1738 271C1738 301 1710 329 1679 329ZM2345 329C2315 329 2288 301 2288 271C2288 241 2315 213 2344 213C2376 213 2404 240 2404 271C2404 301 2376 329 2345 329ZM2578 302L2578 243L3843 243L3718 91L3750 57L3957 274L3750 488L3718 454L3843 302Z" stroke="rgb(0,0,0)" stroke-opacity="1" stroke-width="8" fill="rgb(0,0,0)" fill-opacity="1"></path></g></g><g><g transform="matrix(1,0,0,1,588.2083129882812,117.39584350585938)"><path transform="matrix(0.017,0,0,-0.017,0,0)" d="M263 689C108 689 29 566 29 324C29 207 50 106 85 57C120 8 176 -20 238 -20C389 -20 465 110 465 366C465 585 400 689 263 689ZM245 654C342 654 381 556 381 316C381 103 343 15 251 15C154 15 113 116 113 360C113 571 150 654 245 654Z" stroke="rgb(0,0,0)" stroke-opacity="1" stroke-width="8" fill="rgb(0,0,0)" fill-opacity="1"></path></g></g></g></g><g><g><g><g transform="matrix(1,0,0,1,87.66665649414062,192.39584350585938)"><path transform="matrix(0.017,0,0,-0.017,0,0)" d="M263 689C108 689 29 566 29 324C29 207 50 106 85 57C120 8 176 -20 238 -20C389 -20 465 110 465 366C465 585 400 689 263 689ZM245 654C342 654 381 556 381 316C381 103 343 15 251 15C154 15 113 116 113 360C113 571 150 654 245 654Z" stroke="rgb(0,0,0)" stroke-opacity="1" stroke-width="8" fill="rgb(0,0,0)" fill-opacity="1"></path></g></g><g><g transform="matrix(1,0,0,1,101.25,192.39584350585938)"><path transform="matrix(0.017,0,0,-0.017,0,0)" d="M65 302L65 243L1330 243L1205 91L1237 57L1444 274L1237 488L1205 454L1330 302Z" stroke="rgb(0,0,0)" stroke-opacity="1" stroke-width="8" fill="rgb(0,0,0)" fill-opacity="1"></path></g></g><g><g transform="matrix(1,0,0,1,132.07293701171875,192.39584350585938)"><path transform="matrix(0.017,0,0,-0.017,0,0)" d="M567 55C567 39 552 30 524 28L480 25L480 -3C582 0 582 0 602 0C622 0 622 0 724 -3L724 25L698 28C651 35 650 35 642 80L555 705L509 705L136 112C100 56 82 40 48 32L28 27L28 -3C120 0 120 0 140 0C159 0 161 0 247 -3L247 25L195 28C179 29 164 38 164 47C164 55 171 69 190 102L292 277L538 277L563 89L563 86C563 84 567 69 567 55ZM496 601L533 313L317 313Z" stroke="rgb(0,0,0)" stroke-opacity="1" stroke-width="8" fill="rgb(0,0,0)" fill-opacity="1"></path></g></g><g><g><g><g><g transform="matrix(1,0,0,1,145.8125,186.36875)"><path transform="matrix(0.0119,0,0,-0.0119,0,0)" d="M263 689C108 689 29 566 29 324C29 207 50 106 85 57C120 8 176 -20 238 -20C389 -20 465 110 465 366C465 585 400 689 263 689ZM245 654C342 654 381 556 381 316C381 103 343 15 251 15C154 15 113 116 113 360C113 571 150 654 245 654Z" stroke="rgb(0,0,0)" stroke-opacity="1" stroke-width="8" fill="rgb(0,0,0)" fill-opacity="1"></path></g></g></g></g></g><g><g transform="matrix(1,0,0,1,152.76043701171875,193.0625)"><path transform="matrix(0.017,0,0,-0.017,0,0)" d="M146 266C146 526 243 632 301 700L282 726C225 675 60 542 60 266C60 159 85 58 133 -32C168 -99 200 -138 282 -215L301 -194C255 -137 146 -15 146 266Z" stroke="rgb(0,0,0)" stroke-opacity="1" stroke-width="8" fill="rgb(0,0,0)" fill-opacity="1"></path></g></g><g><g transform="matrix(1,0,0,1,158.40625,192.39584350585938)"><path transform="matrix(0.017,0,0,-0.017,0,0)" d="M937 664L950 695C922 699 775 701 773 692L688 536L442 114L292 692C269 686 146 690 125 692L122 664L148 662C200 658 218 648 218 622C218 616 72 100 70 93C54 41 39 28 -16 23L-19 -3L20 -2C54 -1 79 0 93 0C107 0 133 -1 168 -2L203 -3L206 25L168 28C136 30 119 40 119 55C119 65 121 78 126 96L250 560L399 -18L422 -18L479 86L718 500L770 587L733 67C729 39 717 32 666 28L635 25L632 -3L679 -2C721 -1 751 0 766 0C782 0 812 -1 853 -2L899 -3L902 25L865 28C829 31 811 42 811 63L812 100L853 631C855 650 870 660 899 662Z" stroke="rgb(0,0,0)" stroke-opacity="1" stroke-width="8" fill="rgb(0,0,0)" fill-opacity="1"></path></g></g><g><g transform="matrix(1,0,0,1,174.61456298828125,193.0625)"><path transform="matrix(0.017,0,0,-0.017,0,0)" d="M51 726L32 700C87 636 187 526 187 266C187 -10 83 -131 32 -194L51 -215C104 -165 273 -23 273 265C273 542 108 675 51 726Z" stroke="rgb(0,0,0)" stroke-opacity="1" stroke-width="8" fill="rgb(0,0,0)" fill-opacity="1"></path></g></g><g><g><g><g><g transform="matrix(1,0,0,1,192.47918701171875,173.025)"><path transform="matrix(0.0119,0,0,-0.0119,0,0)" d="M483 722L471 733C419 707 383 698 311 691L307 670L355 670C379 670 389 663 389 646C389 638 388 629 387 622L359 468C329 477 302 482 277 482C208 482 114 410 68 323C37 265 17 170 17 86C17 21 32 -11 61 -11C88 -11 125 6 159 33C213 77 246 116 313 217L290 126C279 82 274 50 274 24C274 3 283 -9 300 -9C317 -9 341 3 375 28L456 88L446 107L402 76C388 66 372 59 363 59C355 59 349 68 349 82C349 90 350 99 357 128ZM114 59C98 59 89 73 89 98C89 224 135 380 184 418C197 428 216 433 243 433C287 433 316 427 349 410L337 351C300 171 159 59 114 59Z" stroke="rgb(0,0,0)" stroke-opacity="1" stroke-width="8" fill="rgb(0,0,0)" fill-opacity="1"></path></g></g><g><g><g><g><g transform="matrix(1,0,0,1,199.09375,168.99668701171876)"><path transform="matrix(0.00833,0,0,-0.00833,0,0)" d="M263 689C108 689 29 566 29 324C29 207 50 106 85 57C120 8 176 -20 238 -20C389 -20 465 110 465 366C465 585 400 689 263 689ZM245 654C342 654 381 556 381 316C381 103 343 15 251 15C154 15 113 116 113 360C113 571 150 654 245 654Z" stroke="rgb(0,0,0)" stroke-opacity="1" stroke-width="8" fill="rgb(0,0,0)" fill-opacity="1"></path></g></g></g></g></g></g></g><g><g><g><g transform="matrix(1,0,0,1,185.35418701171875,192.39584350585938)"><path transform="matrix(0.017,0,0,-0.017,0,0)" d="M65 302L65 243L1330 243L1205 91L1237 57L1444 274L1237 488L1205 454L1330 302Z" stroke="rgb(0,0,0)" stroke-opacity="1" stroke-width="8" fill="rgb(0,0,0)" fill-opacity="1"></path></g></g></g></g></g><g><g transform="matrix(1,0,0,1,216.17706298828125,192.39584350585938)"><path transform="matrix(0.017,0,0,-0.017,0,0)" d="M567 55C567 39 552 30 524 28L480 25L480 -3C582 0 582 0 602 0C622 0 622 0 724 -3L724 25L698 28C651 35 650 35 642 80L555 705L509 705L136 112C100 56 82 40 48 32L28 27L28 -3C120 0 120 0 140 0C159 0 161 0 247 -3L247 25L195 28C179 29 164 38 164 47C164 55 171 69 190 102L292 277L538 277L563 89L563 86C563 84 567 69 567 55ZM496 601L533 313L317 313Z" stroke="rgb(0,0,0)" stroke-opacity="1" stroke-width="8" fill="rgb(0,0,0)" fill-opacity="1"></path></g></g><g><g><g><g><g transform="matrix(1,0,0,1,229.91668701171875,186.36875)"><path transform="matrix(0.0119,0,0,-0.0119,0,0)" d="M418 -3L418 27L366 30C311 33 301 44 301 96L301 700L60 598L67 548L217 614L217 96C217 44 206 33 152 30L96 27L96 -3C250 0 250 0 261 0C292 0 402 -3 418 -3Z" stroke="rgb(0,0,0)" stroke-opacity="1" stroke-width="8" fill="rgb(0,0,0)" fill-opacity="1"></path></g></g></g></g></g><g><g transform="matrix(1,0,0,1,236.86456298828125,193.0625)"><path transform="matrix(0.017,0,0,-0.017,0,0)" d="M146 266C146 526 243 632 301 700L282 726C225 675 60 542 60 266C60 159 85 58 133 -32C168 -99 200 -138 282 -215L301 -194C255 -137 146 -15 146 266Z" stroke="rgb(0,0,0)" stroke-opacity="1" stroke-width="8" fill="rgb(0,0,0)" fill-opacity="1"></path></g></g><g><g transform="matrix(1,0,0,1,242.51043701171875,192.39584350585938)"><path transform="matrix(0.017,0,0,-0.017,0,0)" d="M937 664L950 695C922 699 775 701 773 692L688 536L442 114L292 692C269 686 146 690 125 692L122 664L148 662C200 658 218 648 218 622C218 616 72 100 70 93C54 41 39 28 -16 23L-19 -3L20 -2C54 -1 79 0 93 0C107 0 133 -1 168 -2L203 -3L206 25L168 28C136 30 119 40 119 55C119 65 121 78 126 96L250 560L399 -18L422 -18L479 86L718 500L770 587L733 67C729 39 717 32 666 28L635 25L632 -3L679 -2C721 -1 751 0 766 0C782 0 812 -1 853 -2L899 -3L902 25L865 28C829 31 811 42 811 63L812 100L853 631C855 650 870 660 899 662Z" stroke="rgb(0,0,0)" stroke-opacity="1" stroke-width="8" fill="rgb(0,0,0)" fill-opacity="1"></path></g></g><g><g transform="matrix(1,0,0,1,258.71875,193.0625)"><path transform="matrix(0.017,0,0,-0.017,0,0)" d="M51 726L32 700C87 636 187 526 187 266C187 -10 83 -131 32 -194L51 -215C104 -165 273 -23 273 265C273 542 108 675 51 726Z" stroke="rgb(0,0,0)" stroke-opacity="1" stroke-width="8" fill="rgb(0,0,0)" fill-opacity="1"></path></g></g><g><g><g><g><g transform="matrix(1,0,0,1,276.58331298828125,173.025)"><path transform="matrix(0.0119,0,0,-0.0119,0,0)" d="M483 722L471 733C419 707 383 698 311 691L307 670L355 670C379 670 389 663 389 646C389 638 388 629 387 622L359 468C329 477 302 482 277 482C208 482 114 410 68 323C37 265 17 170 17 86C17 21 32 -11 61 -11C88 -11 125 6 159 33C213 77 246 116 313 217L290 126C279 82 274 50 274 24C274 3 283 -9 300 -9C317 -9 341 3 375 28L456 88L446 107L402 76C388 66 372 59 363 59C355 59 349 68 349 82C349 90 350 99 357 128ZM114 59C98 59 89 73 89 98C89 224 135 380 184 418C197 428 216 433 243 433C287 433 316 427 349 410L337 351C300 171 159 59 114 59Z" stroke="rgb(0,0,0)" stroke-opacity="1" stroke-width="8" fill="rgb(0,0,0)" fill-opacity="1"></path></g></g><g><g><g><g><g transform="matrix(1,0,0,1,283.19793701171875,168.99668701171876)"><path transform="matrix(0.00833,0,0,-0.00833,0,0)" d="M418 -3L418 27L366 30C311 33 301 44 301 96L301 700L60 598L67 548L217 614L217 96C217 44 206 33 152 30L96 27L96 -3C250 0 250 0 261 0C292 0 402 -3 418 -3Z" stroke="rgb(0,0,0)" stroke-opacity="1" stroke-width="8" fill="rgb(0,0,0)" fill-opacity="1"></path></g></g></g></g></g></g></g><g><g><g><g transform="matrix(1,0,0,1,269.45831298828125,192.39584350585938)"><path transform="matrix(0.017,0,0,-0.017,0,0)" d="M65 302L65 243L1330 243L1205 91L1237 57L1444 274L1237 488L1205 454L1330 302Z" stroke="rgb(0,0,0)" stroke-opacity="1" stroke-width="8" fill="rgb(0,0,0)" fill-opacity="1"></path></g></g></g></g></g><g><g transform="matrix(1,0,0,1,305.375,192.39584350585938)"><path transform="matrix(0.017,0,0,-0.017,0,0)" d="M499 329C469 329 442 301 442 271C442 241 469 213 498 213C530 213 558 240 558 271C558 301 530 329 499 329ZM166 329C136 329 109 301 109 271C109 241 136 213 165 213C197 213 225 240 225 271C225 301 197 329 166 329ZM832 329C802 329 775 301 775 271C775 241 802 213 831 213C863 213 891 240 891 271C891 301 863 329 832 329Z" stroke="rgb(0,0,0)" stroke-opacity="1" stroke-width="8" fill="rgb(0,0,0)" fill-opacity="1"></path></g></g><g><g><g><g><g transform="matrix(1,0,0,1,335.21875,173.025)"><path transform="matrix(0.0119,0,0,-0.0119,0,0)" d="M483 722L471 733C419 707 383 698 311 691L307 670L355 670C379 670 389 663 389 646C389 638 388 629 387 622L359 468C329 477 302 482 277 482C208 482 114 410 68 323C37 265 17 170 17 86C17 21 32 -11 61 -11C88 -11 125 6 159 33C213 77 246 116 313 217L290 126C279 82 274 50 274 24C274 3 283 -9 300 -9C317 -9 341 3 375 28L456 88L446 107L402 76C388 66 372 59 363 59C355 59 349 68 349 82C349 90 350 99 357 128ZM114 59C98 59 89 73 89 98C89 224 135 380 184 418C197 428 216 433 243 433C287 433 316 427 349 410L337 351C300 171 159 59 114 59Z" stroke="rgb(0,0,0)" stroke-opacity="1" stroke-width="8" fill="rgb(0,0,0)" fill-opacity="1"></path></g></g><g><g><g><g><g transform="matrix(1,0,0,1,341.83331298828125,168.99668701171876)"><path transform="matrix(0.00833,0,0,-0.00833,0,0)" d="M240 722L228 733C176 707 140 698 68 691L64 670L112 670C136 670 146 663 146 646C146 638 145 629 144 622L96 354C82 279 66 210 14 1L23 -9L90 8L113 132C122 180 146 225 180 259C249 59 281 -9 306 -9C319 -9 343 4 387 35L433 67L425 86L382 62C368 54 361 52 353 52C343 52 336 58 327 75C292 139 270 193 231 316L245 330C306 391 352 416 402 416C410 416 421 414 438 410L455 473C437 479 419 482 407 482C341 482 258 405 133 230ZM1023 243L1023 299L519 299L519 243ZM1491 -3L1491 27L1439 30C1384 33 1374 44 1374 96L1374 700L1133 598L1140 548L1290 614L1290 96C1290 44 1279 33 1225 30L1169 27L1169 -3C1323 0 1323 0 1334 0C1365 0 1475 -3 1491 -3Z" stroke="rgb(0,0,0)" stroke-opacity="1" stroke-width="8" fill="rgb(0,0,0)" fill-opacity="1"></path></g></g></g></g></g></g></g><g><g><g><g transform="matrix(1,0,0,1,332.5625,192.39584350585938)"><path transform="matrix(0.017,0,0,-0.017,0,0)" d="M65 302L65 243L1330 243L1205 91L1237 57L1444 274L1237 488L1205 454L1330 302Z" stroke="rgb(0,0,0)" stroke-opacity="1" stroke-width="8" fill="rgb(0,0,0)" fill-opacity="1"></path></g></g></g></g></g><g><g transform="matrix(1,0,0,1,363.38543701171875,192.39584350585938)"><path transform="matrix(0.017,0,0,-0.017,0,0)" d="M567 55C567 39 552 30 524 28L480 25L480 -3C582 0 582 0 602 0C622 0 622 0 724 -3L724 25L698 28C651 35 650 35 642 80L555 705L509 705L136 112C100 56 82 40 48 32L28 27L28 -3C120 0 120 0 140 0C159 0 161 0 247 -3L247 25L195 28C179 29 164 38 164 47C164 55 171 69 190 102L292 277L538 277L563 89L563 86C563 84 567 69 567 55ZM496 601L533 313L317 313Z" stroke="rgb(0,0,0)" stroke-opacity="1" stroke-width="8" fill="rgb(0,0,0)" fill-opacity="1"></path></g></g><g><g><g><g><g transform="matrix(1,0,0,1,377.125,186.36875)"><path transform="matrix(0.0119,0,0,-0.0119,0,0)" d="M240 722L228 733C176 707 140 698 68 691L64 670L112 670C136 670 146 663 146 646C146 638 145 629 144 622L96 354C82 279 66 210 14 1L23 -9L90 8L113 132C122 180 146 225 180 259C249 59 281 -9 306 -9C319 -9 343 4 387 35L433 67L425 86L382 62C368 54 361 52 353 52C343 52 336 58 327 75C292 139 270 193 231 316L245 330C306 391 352 416 402 416C410 416 421 414 438 410L455 473C437 479 419 482 407 482C341 482 258 405 133 230Z" stroke="rgb(0,0,0)" stroke-opacity="1" stroke-width="8" fill="rgb(0,0,0)" fill-opacity="1"></path></g></g></g></g></g><g><g transform="matrix(1,0,0,1,383.70831298828125,193.0625)"><path transform="matrix(0.017,0,0,-0.017,0,0)" d="M146 266C146 526 243 632 301 700L282 726C225 675 60 542 60 266C60 159 85 58 133 -32C168 -99 200 -138 282 -215L301 -194C255 -137 146 -15 146 266Z" stroke="rgb(0,0,0)" stroke-opacity="1" stroke-width="8" fill="rgb(0,0,0)" fill-opacity="1"></path></g></g><g><g transform="matrix(1,0,0,1,389.35418701171875,192.39584350585938)"><path transform="matrix(0.017,0,0,-0.017,0,0)" d="M937 664L950 695C922 699 775 701 773 692L688 536L442 114L292 692C269 686 146 690 125 692L122 664L148 662C200 658 218 648 218 622C218 616 72 100 70 93C54 41 39 28 -16 23L-19 -3L20 -2C54 -1 79 0 93 0C107 0 133 -1 168 -2L203 -3L206 25L168 28C136 30 119 40 119 55C119 65 121 78 126 96L250 560L399 -18L422 -18L479 86L718 500L770 587L733 67C729 39 717 32 666 28L635 25L632 -3L679 -2C721 -1 751 0 766 0C782 0 812 -1 853 -2L899 -3L902 25L865 28C829 31 811 42 811 63L812 100L853 631C855 650 870 660 899 662Z" stroke="rgb(0,0,0)" stroke-opacity="1" stroke-width="8" fill="rgb(0,0,0)" fill-opacity="1"></path></g></g><g><g transform="matrix(1,0,0,1,405.5625,193.0625)"><path transform="matrix(0.017,0,0,-0.017,0,0)" d="M51 726L32 700C87 636 187 526 187 266C187 -10 83 -131 32 -194L51 -215C104 -165 273 -23 273 265C273 542 108 675 51 726Z" stroke="rgb(0,0,0)" stroke-opacity="1" stroke-width="8" fill="rgb(0,0,0)" fill-opacity="1"></path></g></g><g><g><g><g><g transform="matrix(1,0,0,1,423.55206298828125,173.025)"><path transform="matrix(0.0119,0,0,-0.0119,0,0)" d="M483 722L471 733C419 707 383 698 311 691L307 670L355 670C379 670 389 663 389 646C389 638 388 629 387 622L359 468C329 477 302 482 277 482C208 482 114 410 68 323C37 265 17 170 17 86C17 21 32 -11 61 -11C88 -11 125 6 159 33C213 77 246 116 313 217L290 126C279 82 274 50 274 24C274 3 283 -9 300 -9C317 -9 341 3 375 28L456 88L446 107L402 76C388 66 372 59 363 59C355 59 349 68 349 82C349 90 350 99 357 128ZM114 59C98 59 89 73 89 98C89 224 135 380 184 418C197 428 216 433 243 433C287 433 316 427 349 410L337 351C300 171 159 59 114 59Z" stroke="rgb(0,0,0)" stroke-opacity="1" stroke-width="8" fill="rgb(0,0,0)" fill-opacity="1"></path></g></g><g><g><g><g><g transform="matrix(1,0,0,1,430.16668701171875,168.99668701171876)"><path transform="matrix(0.00833,0,0,-0.00833,0,0)" d="M240 722L228 733C176 707 140 698 68 691L64 670L112 670C136 670 146 663 146 646C146 638 145 629 144 622L96 354C82 279 66 210 14 1L23 -9L90 8L113 132C122 180 146 225 180 259C249 59 281 -9 306 -9C319 -9 343 4 387 35L433 67L425 86L382 62C368 54 361 52 353 52C343 52 336 58 327 75C292 139 270 193 231 316L245 330C306 391 352 416 402 416C410 416 421 414 438 410L455 473C437 479 419 482 407 482C341 482 258 405 133 230Z" stroke="rgb(0,0,0)" stroke-opacity="1" stroke-width="8" fill="rgb(0,0,0)" fill-opacity="1"></path></g></g></g></g></g></g></g><g><g><g><g transform="matrix(1,0,0,1,416.30206298828125,192.39584350585938)"><path transform="matrix(0.017,0,0,-0.017,0,0)" d="M65 302L65 243L1330 243L1205 91L1237 57L1444 274L1237 488L1205 454L1330 302Z" stroke="rgb(0,0,0)" stroke-opacity="1" stroke-width="8" fill="rgb(0,0,0)" fill-opacity="1"></path></g></g></g></g></g><g><g transform="matrix(1,0,0,1,447.125,192.39584350585938)"><path transform="matrix(0.017,0,0,-0.017,0,0)" d="M567 55C567 39 552 30 524 28L480 25L480 -3C582 0 582 0 602 0C622 0 622 0 724 -3L724 25L698 28C651 35 650 35 642 80L555 705L509 705L136 112C100 56 82 40 48 32L28 27L28 -3C120 0 120 0 140 0C159 0 161 0 247 -3L247 25L195 28C179 29 164 38 164 47C164 55 171 69 190 102L292 277L538 277L563 89L563 86C563 84 567 69 567 55ZM496 601L533 313L317 313Z" stroke="rgb(0,0,0)" stroke-opacity="1" stroke-width="8" fill="rgb(0,0,0)" fill-opacity="1"></path></g></g><g><g><g><g><g transform="matrix(1,0,0,1,460.86456298828125,185.70209350585938)"><path transform="matrix(0.0119,0,0,-0.0119,0,0)" d="M240 722L228 733C176 707 140 698 68 691L64 670L112 670C136 670 146 663 146 646C146 638 145 629 144 622L96 354C82 279 66 210 14 1L23 -9L90 8L113 132C122 180 146 225 180 259C249 59 281 -9 306 -9C319 -9 343 4 387 35L433 67L425 86L382 62C368 54 361 52 353 52C343 52 336 58 327 75C292 139 270 193 231 316L245 330C306 391 352 416 402 416C410 416 421 414 438 410L455 473C437 479 419 482 407 482C341 482 258 405 133 230ZM1072 241L1072 300L832 300L832 538L773 538L773 300L533 300L533 241L773 241L773 0L832 0L832 241ZM1554 -3L1554 27L1502 30C1447 33 1437 44 1437 96L1437 700L1196 598L1203 548L1353 614L1353 96C1353 44 1342 33 1288 30L1232 27L1232 -3C1386 0 1386 0 1397 0C1428 0 1538 -3 1554 -3Z" stroke="rgb(0,0,0)" stroke-opacity="1" stroke-width="8" fill="rgb(0,0,0)" fill-opacity="1"></path></g></g></g></g></g><g><g transform="matrix(1,0,0,1,481.32293701171875,193.0625)"><path transform="matrix(0.017,0,0,-0.017,0,0)" d="M146 266C146 526 243 632 301 700L282 726C225 675 60 542 60 266C60 159 85 58 133 -32C168 -99 200 -138 282 -215L301 -194C255 -137 146 -15 146 266Z" stroke="rgb(0,0,0)" stroke-opacity="1" stroke-width="8" fill="rgb(0,0,0)" fill-opacity="1"></path></g></g><g><g transform="matrix(1,0,0,1,486.96875,192.39584350585938)"><path transform="matrix(0.017,0,0,-0.017,0,0)" d="M937 664L950 695C922 699 775 701 773 692L688 536L442 114L292 692C269 686 146 690 125 692L122 664L148 662C200 658 218 648 218 622C218 616 72 100 70 93C54 41 39 28 -16 23L-19 -3L20 -2C54 -1 79 0 93 0C107 0 133 -1 168 -2L203 -3L206 25L168 28C136 30 119 40 119 55C119 65 121 78 126 96L250 560L399 -18L422 -18L479 86L718 500L770 587L733 67C729 39 717 32 666 28L635 25L632 -3L679 -2C721 -1 751 0 766 0C782 0 812 -1 853 -2L899 -3L902 25L865 28C829 31 811 42 811 63L812 100L853 631C855 650 870 660 899 662Z" stroke="rgb(0,0,0)" stroke-opacity="1" stroke-width="8" fill="rgb(0,0,0)" fill-opacity="1"></path></g></g><g><g transform="matrix(1,0,0,1,503.17706298828125,193.0625)"><path transform="matrix(0.017,0,0,-0.017,0,0)" d="M51 726L32 700C87 636 187 526 187 266C187 -10 83 -131 32 -194L51 -215C104 -165 273 -23 273 265C273 542 108 675 51 726Z" stroke="rgb(0,0,0)" stroke-opacity="1" stroke-width="8" fill="rgb(0,0,0)" fill-opacity="1"></path></g></g><g><g transform="matrix(1,0,0,1,513.9166870117188,192.39584350585938)"><path transform="matrix(0.017,0,0,-0.017,0,0)" d="M65 302L65 243L1330 243L1205 91L1237 57L1444 274L1237 488L1205 454L1330 302ZM2012 329C1982 329 1955 301 1955 271C1955 241 1982 213 2011 213C2043 213 2071 240 2071 271C2071 301 2043 329 2012 329ZM1679 329C1649 329 1622 301 1622 271C1622 241 1649 213 1678 213C1710 213 1738 240 1738 271C1738 301 1710 329 1679 329ZM2345 329C2315 329 2288 301 2288 271C2288 241 2315 213 2344 213C2376 213 2404 240 2404 271C2404 301 2376 329 2345 329ZM2578 302L2578 243L3843 243L3718 91L3750 57L3957 274L3750 488L3718 454L3843 302Z" stroke="rgb(0,0,0)" stroke-opacity="1" stroke-width="8" fill="rgb(0,0,0)" fill-opacity="1"></path></g></g><g><g transform="matrix(1,0,0,1,587.4583129882812,192.39584350585938)"><path transform="matrix(0.017,0,0,-0.017,0,0)" d="M263 689C108 689 29 566 29 324C29 207 50 106 85 57C120 8 176 -20 238 -20C389 -20 465 110 465 366C465 585 400 689 263 689ZM245 654C342 654 381 556 381 316C381 103 343 15 251 15C154 15 113 116 113 360C113 571 150 654 245 654Z" stroke="rgb(0,0,0)" stroke-opacity="1" stroke-width="8" fill="rgb(0,0,0)" fill-opacity="1"></path></g></g></g></g><g><g><g><g transform="matrix(1,0,0,1,53.666656494140625,160.59375)"><path transform="matrix(0.017,0,0,-0.017,0,0)" d="M345 437L329 437L350 549C366 635 394 673 440 673C470 673 497 658 512 634L522 638C527 654 537 685 545 705L550 720C534 727 503 733 480 733C469 733 453 730 445 726C421 715 339 654 316 630C294 608 282 578 271 521L256 442C215 422 195 414 170 405L165 383L246 383L237 327C207 132 170 -54 148 -123C130 -182 100 -213 64 -213C41 -213 30 -206 12 -184L-2 -188C-6 -211 -20 -259 -25 -268C-16 -273 -1 -276 10 -276C51 -276 105 -245 144 -198C215 -114 235 -18 319 383L423 383C427 402 434 425 440 439L436 446C407 439 408 437 345 437Z" stroke="rgb(0,0,0)" stroke-opacity="1" stroke-width="8" fill="rgb(0,0,0)" fill-opacity="1"></path></g></g><g><g><g><g><g transform="matrix(1,0,0,1,63.98956298828125,154.56668701171876)"><path transform="matrix(0.0119,0,0,-0.0119,0,0)" d="M358 245L358 307L352 311L213 287L282 412L279 427L217 446L208 442L182 299L87 397L77 397L33 345L36 335L167 271L36 217L31 208L67 157L77 157L183 245L201 103L211 99L279 125L279 135L211 257L349 237Z" stroke="rgb(0,0,0)" stroke-opacity="1" stroke-width="8" fill="rgb(0,0,0)" fill-opacity="1"></path></g></g></g></g></g></g></g><g><g><g><g transform="matrix(1,0,0,1,87.66665649414062,40.28125)"><path transform="matrix(0.017,0,0,-0.017,0,0)" d="M263 689C108 689 29 566 29 324C29 207 50 106 85 57C120 8 176 -20 238 -20C389 -20 465 110 465 366C465 585 400 689 263 689ZM245 654C342 654 381 556 381 316C381 103 343 15 251 15C154 15 113 116 113 360C113 571 150 654 245 654Z" stroke="rgb(0,0,0)" stroke-opacity="1" stroke-width="8" fill="rgb(0,0,0)" fill-opacity="1"></path></g></g><g><g transform="matrix(1,0,0,1,101.25,40.28125)"><path transform="matrix(0.017,0,0,-0.017,0,0)" d="M65 302L65 243L1330 243L1205 91L1237 57L1444 274L1237 488L1205 454L1330 302Z" stroke="rgb(0,0,0)" stroke-opacity="1" stroke-width="8" fill="rgb(0,0,0)" fill-opacity="1"></path></g></g><g><g transform="matrix(1,0,0,1,132.07293701171875,40.28125)"><path transform="matrix(0.017,0,0,-0.017,0,0)" d="" stroke="rgb(0,0,0)" stroke-opacity="1" stroke-width="8" fill="rgb(0,0,0)" fill-opacity="1"></path></g></g><g><g><g transform="matrix(1,0,0,1,140.54168701171875,40.28125)"><path transform="matrix(0.017,0,0,-0.017,0,0)" d="M23 661L79 661C97 661 104 650 104 620L104 102C104 39 101 32 67 30L21 27L21 -3C121 0 121 0 147 0C175 0 180 0 269 -3L269 27L225 30C191 32 188 39 188 102L188 240L453 -12L549 17L549 40C525 40 496 57 464 88L274 281L403 382C448 417 475 429 507 429L511 429L511 459L411 459L188 261L188 718L179 726C135 709 102 701 23 689ZM805 -20C870 -20 960 18 972 36L992 70L979 80C915 42 892 33 849 33C784 33 730 62 702 111C683 144 676 172 674 230C695 227 725 226 759 226C845 226 954 234 1001 244C1002 258 1003 267 1003 279C1003 394 929 469 817 469C780 469 735 464 695 440C613 392 581 323 581 219C581 25 716 -20 805 -20ZM914 267C890 264 839 261 788 261C745 261 702 264 676 270C676 317 680 339 693 365C714 409 757 436 805 436C838 436 864 423 882 396C904 363 911 334 914 267ZM1056 400L1093 400C1133 400 1137 393 1137 327L1137 102C1137 39 1134 32 1100 30L1054 27L1054 -3C1126 -1 1152 0 1177 0C1197 0 1197 0 1320 -3L1320 27L1268 30C1223 33 1221 36 1221 102L1221 274C1221 334 1261 384 1310 384C1340 384 1361 370 1377 338L1398 338L1407 458C1396 465 1378 469 1360 469C1330 469 1298 453 1277 428L1221 362L1221 465L1212 469C1161 448 1109 434 1056 428Z" stroke="rgb(0,0,0)" stroke-opacity="1" stroke-width="8" fill="rgb(0,0,0)" fill-opacity="1"></path></g></g></g><g><g><g><g><g transform="matrix(1,0,0,1,165.77081298828125,34.65)"><path transform="matrix(0.0119,0,0,-0.0119,0,0)" d="M263 689C108 689 29 566 29 324C29 207 50 106 85 57C120 8 176 -20 238 -20C389 -20 465 110 465 366C465 585 400 689 263 689ZM245 654C342 654 381 556 381 316C381 103 343 15 251 15C154 15 113 116 113 360C113 571 150 654 245 654Z" stroke="rgb(0,0,0)" stroke-opacity="1" stroke-width="8" fill="rgb(0,0,0)" fill-opacity="1"></path></g></g></g></g></g><g><g transform="matrix(1,0,0,1,172.71875,40.28125)"><path transform="matrix(0.017,0,0,-0.017,0,0)" d="" stroke="rgb(0,0,0)" stroke-opacity="1" stroke-width="8" fill="rgb(0,0,0)" fill-opacity="1"></path></g></g><g><g><g><g><g transform="matrix(1,0,0,1,196.51043701171875,22.9)"><path transform="matrix(0.0119,0,0,-0.0119,0,0)" d="M148 254C148 224 162 200 192 181L213 195C197 214 191 227 191 243C191 276 204 293 285 366C370 444 395 483 395 540C395 627 316 694 213 694C169 694 134 685 81 659L43 546L72 538L92 586C103 613 134 628 179 628C251 628 302 583 302 519C302 416 148 344 148 254ZM198 111C168 111 141 83 141 53C141 23 168 -5 197 -5C229 -5 257 22 257 53C257 83 229 111 198 111Z" stroke="rgb(0,0,0)" stroke-opacity="1" stroke-width="8" fill="rgb(0,0,0)" fill-opacity="1"></path></g></g></g></g><g><g><g><g transform="matrix(1,0,0,1,186.28125,40.28125)"><path transform="matrix(0.017,0,0,-0.017,0,0)" d="M65 302L65 243L1330 243L1205 91L1237 57L1444 274L1237 488L1205 454L1330 302Z" stroke="rgb(0,0,0)" stroke-opacity="1" stroke-width="8" fill="rgb(0,0,0)" fill-opacity="1"></path></g></g></g></g></g><g><g transform="matrix(1,0,0,1,217.10418701171875,40.28125)"><path transform="matrix(0.017,0,0,-0.017,0,0)" d="" stroke="rgb(0,0,0)" stroke-opacity="1" stroke-width="8" fill="rgb(0,0,0)" fill-opacity="1"></path></g></g><g><g><g transform="matrix(1,0,0,1,221.34375,40.28125)"><path transform="matrix(0.017,0,0,-0.017,0,0)" d="M23 661L79 661C97 661 104 650 104 620L104 102C104 39 101 32 67 30L21 27L21 -3C121 0 121 0 147 0C175 0 180 0 269 -3L269 27L225 30C191 32 188 39 188 102L188 240L453 -12L549 17L549 40C525 40 496 57 464 88L274 281L403 382C448 417 475 429 507 429L511 429L511 459L411 459L188 261L188 718L179 726C135 709 102 701 23 689ZM805 -20C870 -20 960 18 972 36L992 70L979 80C915 42 892 33 849 33C784 33 730 62 702 111C683 144 676 172 674 230C695 227 725 226 759 226C845 226 954 234 1001 244C1002 258 1003 267 1003 279C1003 394 929 469 817 469C780 469 735 464 695 440C613 392 581 323 581 219C581 25 716 -20 805 -20ZM914 267C890 264 839 261 788 261C745 261 702 264 676 270C676 317 680 339 693 365C714 409 757 436 805 436C838 436 864 423 882 396C904 363 911 334 914 267ZM1056 400L1093 400C1133 400 1137 393 1137 327L1137 102C1137 39 1134 32 1100 30L1054 27L1054 -3C1126 -1 1152 0 1177 0C1197 0 1197 0 1320 -3L1320 27L1268 30C1223 33 1221 36 1221 102L1221 274C1221 334 1261 384 1310 384C1340 384 1361 370 1377 338L1398 338L1407 458C1396 465 1378 469 1360 469C1330 469 1298 453 1277 428L1221 362L1221 465L1212 469C1161 448 1109 434 1056 428Z" stroke="rgb(0,0,0)" stroke-opacity="1" stroke-width="8" fill="rgb(0,0,0)" fill-opacity="1"></path></g></g></g><g><g><g><g><g transform="matrix(1,0,0,1,246.57293701171875,34.65)"><path transform="matrix(0.0119,0,0,-0.0119,0,0)" d="M418 -3L418 27L366 30C311 33 301 44 301 96L301 700L60 598L67 548L217 614L217 96C217 44 206 33 152 30L96 27L96 -3C250 0 250 0 261 0C292 0 402 -3 418 -3Z" stroke="rgb(0,0,0)" stroke-opacity="1" stroke-width="8" fill="rgb(0,0,0)" fill-opacity="1"></path></g></g></g></g></g><g><g transform="matrix(1,0,0,1,253.52081298828125,40.28125)"><path transform="matrix(0.017,0,0,-0.017,0,0)" d="" stroke="rgb(0,0,0)" stroke-opacity="1" stroke-width="8" fill="rgb(0,0,0)" fill-opacity="1"></path></g></g><g><g><g><g><g transform="matrix(1,0,0,1,273.08331298828125,22.9)"><path transform="matrix(0.0119,0,0,-0.0119,0,0)" d="M148 254C148 224 162 200 192 181L213 195C197 214 191 227 191 243C191 276 204 293 285 366C370 444 395 483 395 540C395 627 316 694 213 694C169 694 134 685 81 659L43 546L72 538L92 586C103 613 134 628 179 628C251 628 302 583 302 519C302 416 148 344 148 254ZM198 111C168 111 141 83 141 53C141 23 168 -5 197 -5C229 -5 257 22 257 53C257 83 229 111 198 111Z" stroke="rgb(0,0,0)" stroke-opacity="1" stroke-width="8" fill="rgb(0,0,0)" fill-opacity="1"></path></g></g></g></g><g><g><g><g transform="matrix(1,0,0,1,262.85418701171875,40.28125)"><path transform="matrix(0.017,0,0,-0.017,0,0)" d="M65 302L65 243L1330 243L1205 91L1237 57L1444 274L1237 488L1205 454L1330 302Z" stroke="rgb(0,0,0)" stroke-opacity="1" stroke-width="8" fill="rgb(0,0,0)" fill-opacity="1"></path></g></g></g></g></g><g><g transform="matrix(1,0,0,1,298.77081298828125,40.28125)"><path transform="matrix(0.017,0,0,-0.017,0,0)" d="M499 329C469 329 442 301 442 271C442 241 469 213 498 213C530 213 558 240 558 271C558 301 530 329 499 329ZM166 329C136 329 109 301 109 271C109 241 136 213 165 213C197 213 225 240 225 271C225 301 197 329 166 329ZM832 329C802 329 775 301 775 271C775 241 802 213 831 213C863 213 891 240 891 271C891 301 863 329 832 329Z" stroke="rgb(0,0,0)" stroke-opacity="1" stroke-width="8" fill="rgb(0,0,0)" fill-opacity="1"></path></g></g><g><g><g><g><g transform="matrix(1,0,0,1,336.1875,22.9)"><path transform="matrix(0.0119,0,0,-0.0119,0,0)" d="M148 254C148 224 162 200 192 181L213 195C197 214 191 227 191 243C191 276 204 293 285 366C370 444 395 483 395 540C395 627 316 694 213 694C169 694 134 685 81 659L43 546L72 538L92 586C103 613 134 628 179 628C251 628 302 583 302 519C302 416 148 344 148 254ZM198 111C168 111 141 83 141 53C141 23 168 -5 197 -5C229 -5 257 22 257 53C257 83 229 111 198 111Z" stroke="rgb(0,0,0)" stroke-opacity="1" stroke-width="8" fill="rgb(0,0,0)" fill-opacity="1"></path></g></g></g></g><g><g><g><g transform="matrix(1,0,0,1,325.95831298828125,40.28125)"><path transform="matrix(0.017,0,0,-0.017,0,0)" d="M65 302L65 243L1330 243L1205 91L1237 57L1444 274L1237 488L1205 454L1330 302Z" stroke="rgb(0,0,0)" stroke-opacity="1" stroke-width="8" fill="rgb(0,0,0)" fill-opacity="1"></path></g></g></g></g></g><g><g transform="matrix(1,0,0,1,356.78125,40.28125)"><path transform="matrix(0.017,0,0,-0.017,0,0)" d="" stroke="rgb(0,0,0)" stroke-opacity="1" stroke-width="8" fill="rgb(0,0,0)" fill-opacity="1"></path></g></g><g><g><g transform="matrix(1,0,0,1,365.25,40.28125)"><path transform="matrix(0.017,0,0,-0.017,0,0)" d="M23 661L79 661C97 661 104 650 104 620L104 102C104 39 101 32 67 30L21 27L21 -3C121 0 121 0 147 0C175 0 180 0 269 -3L269 27L225 30C191 32 188 39 188 102L188 240L453 -12L549 17L549 40C525 40 496 57 464 88L274 281L403 382C448 417 475 429 507 429L511 429L511 459L411 459L188 261L188 718L179 726C135 709 102 701 23 689ZM805 -20C870 -20 960 18 972 36L992 70L979 80C915 42 892 33 849 33C784 33 730 62 702 111C683 144 676 172 674 230C695 227 725 226 759 226C845 226 954 234 1001 244C1002 258 1003 267 1003 279C1003 394 929 469 817 469C780 469 735 464 695 440C613 392 581 323 581 219C581 25 716 -20 805 -20ZM914 267C890 264 839 261 788 261C745 261 702 264 676 270C676 317 680 339 693 365C714 409 757 436 805 436C838 436 864 423 882 396C904 363 911 334 914 267ZM1056 400L1093 400C1133 400 1137 393 1137 327L1137 102C1137 39 1134 32 1100 30L1054 27L1054 -3C1126 -1 1152 0 1177 0C1197 0 1197 0 1320 -3L1320 27L1268 30C1223 33 1221 36 1221 102L1221 274C1221 334 1261 384 1310 384C1340 384 1361 370 1377 338L1398 338L1407 458C1396 465 1378 469 1360 469C1330 469 1298 453 1277 428L1221 362L1221 465L1212 469C1161 448 1109 434 1056 428Z" stroke="rgb(0,0,0)" stroke-opacity="1" stroke-width="8" fill="rgb(0,0,0)" fill-opacity="1"></path></g></g></g><g><g><g><g><g transform="matrix(1,0,0,1,390.47918701171875,34.65)"><path transform="matrix(0.0119,0,0,-0.0119,0,0)" d="M240 722L228 733C176 707 140 698 68 691L64 670L112 670C136 670 146 663 146 646C146 638 145 629 144 622L96 354C82 279 66 210 14 1L23 -9L90 8L113 132C122 180 146 225 180 259C249 59 281 -9 306 -9C319 -9 343 4 387 35L433 67L425 86L382 62C368 54 361 52 353 52C343 52 336 58 327 75C292 139 270 193 231 316L245 330C306 391 352 416 402 416C410 416 421 414 438 410L455 473C437 479 419 482 407 482C341 482 258 405 133 230Z" stroke="rgb(0,0,0)" stroke-opacity="1" stroke-width="8" fill="rgb(0,0,0)" fill-opacity="1"></path></g></g></g></g></g><g><g transform="matrix(1,0,0,1,397.0625,40.28125)"><path transform="matrix(0.017,0,0,-0.017,0,0)" d="" stroke="rgb(0,0,0)" stroke-opacity="1" stroke-width="8" fill="rgb(0,0,0)" fill-opacity="1"></path></g></g><g><g><g><g><g transform="matrix(1,0,0,1,420.85418701171875,22.9)"><path transform="matrix(0.0119,0,0,-0.0119,0,0)" d="M148 254C148 224 162 200 192 181L213 195C197 214 191 227 191 243C191 276 204 293 285 366C370 444 395 483 395 540C395 627 316 694 213 694C169 694 134 685 81 659L43 546L72 538L92 586C103 613 134 628 179 628C251 628 302 583 302 519C302 416 148 344 148 254ZM198 111C168 111 141 83 141 53C141 23 168 -5 197 -5C229 -5 257 22 257 53C257 83 229 111 198 111Z" stroke="rgb(0,0,0)" stroke-opacity="1" stroke-width="8" fill="rgb(0,0,0)" fill-opacity="1"></path></g></g></g></g><g><g><g><g transform="matrix(1,0,0,1,410.625,40.28125)"><path transform="matrix(0.017,0,0,-0.017,0,0)" d="M65 302L65 243L1330 243L1205 91L1237 57L1444 274L1237 488L1205 454L1330 302Z" stroke="rgb(0,0,0)" stroke-opacity="1" stroke-width="8" fill="rgb(0,0,0)" fill-opacity="1"></path></g></g></g></g></g><g><g transform="matrix(1,0,0,1,441.44793701171875,40.28125)"><path transform="matrix(0.017,0,0,-0.017,0,0)" d="" stroke="rgb(0,0,0)" stroke-opacity="1" stroke-width="8" fill="rgb(0,0,0)" fill-opacity="1"></path></g></g><g><g><g transform="matrix(1,0,0,1,454.15625,40.28125)"><path transform="matrix(0.017,0,0,-0.017,0,0)" d="M23 661L79 661C97 661 104 650 104 620L104 102C104 39 101 32 67 30L21 27L21 -3C121 0 121 0 147 0C175 0 180 0 269 -3L269 27L225 30C191 32 188 39 188 102L188 240L453 -12L549 17L549 40C525 40 496 57 464 88L274 281L403 382C448 417 475 429 507 429L511 429L511 459L411 459L188 261L188 718L179 726C135 709 102 701 23 689ZM805 -20C870 -20 960 18 972 36L992 70L979 80C915 42 892 33 849 33C784 33 730 62 702 111C683 144 676 172 674 230C695 227 725 226 759 226C845 226 954 234 1001 244C1002 258 1003 267 1003 279C1003 394 929 469 817 469C780 469 735 464 695 440C613 392 581 323 581 219C581 25 716 -20 805 -20ZM914 267C890 264 839 261 788 261C745 261 702 264 676 270C676 317 680 339 693 365C714 409 757 436 805 436C838 436 864 423 882 396C904 363 911 334 914 267ZM1056 400L1093 400C1133 400 1137 393 1137 327L1137 102C1137 39 1134 32 1100 30L1054 27L1054 -3C1126 -1 1152 0 1177 0C1197 0 1197 0 1320 -3L1320 27L1268 30C1223 33 1221 36 1221 102L1221 274C1221 334 1261 384 1310 384C1340 384 1361 370 1377 338L1398 338L1407 458C1396 465 1378 469 1360 469C1330 469 1298 453 1277 428L1221 362L1221 465L1212 469C1161 448 1109 434 1056 428Z" stroke="rgb(0,0,0)" stroke-opacity="1" stroke-width="8" fill="rgb(0,0,0)" fill-opacity="1"></path></g></g></g><g><g><g><g><g transform="matrix(1,0,0,1,479.38543701171875,33.983343505859374)"><path transform="matrix(0.0119,0,0,-0.0119,0,0)" d="M240 722L228 733C176 707 140 698 68 691L64 670L112 670C136 670 146 663 146 646C146 638 145 629 144 622L96 354C82 279 66 210 14 1L23 -9L90 8L113 132C122 180 146 225 180 259C249 59 281 -9 306 -9C319 -9 343 4 387 35L433 67L425 86L382 62C368 54 361 52 353 52C343 52 336 58 327 75C292 139 270 193 231 316L245 330C306 391 352 416 402 416C410 416 421 414 438 410L455 473C437 479 419 482 407 482C341 482 258 405 133 230ZM1072 241L1072 300L832 300L832 538L773 538L773 300L533 300L533 241L773 241L773 0L832 0L832 241ZM1554 -3L1554 27L1502 30C1447 33 1437 44 1437 96L1437 700L1196 598L1203 548L1353 614L1353 96C1353 44 1342 33 1288 30L1232 27L1232 -3C1386 0 1386 0 1397 0C1428 0 1538 -3 1554 -3Z" stroke="rgb(0,0,0)" stroke-opacity="1" stroke-width="8" fill="rgb(0,0,0)" fill-opacity="1"></path></g></g></g></g></g><g><g transform="matrix(1,0,0,1,499.84375,40.28125)"><path transform="matrix(0.017,0,0,-0.017,0,0)" d="" stroke="rgb(0,0,0)" stroke-opacity="1" stroke-width="8" fill="rgb(0,0,0)" fill-opacity="1"></path></g></g><g><g transform="matrix(1,0,0,1,513.40625,40.28125)"><path transform="matrix(0.017,0,0,-0.017,0,0)" d="M65 302L65 243L1330 243L1205 91L1237 57L1444 274L1237 488L1205 454L1330 302ZM2012 329C1982 329 1955 301 1955 271C1955 241 1982 213 2011 213C2043 213 2071 240 2071 271C2071 301 2043 329 2012 329ZM1679 329C1649 329 1622 301 1622 271C1622 241 1649 213 1678 213C1710 213 1738 240 1738 271C1738 301 1710 329 1679 329ZM2345 329C2315 329 2288 301 2288 271C2288 241 2315 213 2344 213C2376 213 2404 240 2404 271C2404 301 2376 329 2345 329ZM2578 302L2578 243L3843 243L3718 91L3750 57L3957 274L3750 488L3718 454L3843 302Z" stroke="rgb(0,0,0)" stroke-opacity="1" stroke-width="8" fill="rgb(0,0,0)" fill-opacity="1"></path></g></g><g><g transform="matrix(1,0,0,1,586.9479370117188,40.28125)"><path transform="matrix(0.017,0,0,-0.017,0,0)" d="M263 689C108 689 29 566 29 324C29 207 50 106 85 57C120 8 176 -20 238 -20C389 -20 465 110 465 366C465 585 400 689 263 689ZM245 654C342 654 381 556 381 316C381 103 343 15 251 15C154 15 113 116 113 360C113 571 150 654 245 654Z" stroke="rgb(0,0,0)" stroke-opacity="1" stroke-width="8" fill="rgb(0,0,0)" fill-opacity="1"></path></g></g></g></g><g><g><g><g transform="matrix(1,0,0,1,87.66665649414062,260.28125)"><path transform="matrix(0.017,0,0,-0.017,0,0)" d="M263 689C108 689 29 566 29 324C29 207 50 106 85 57C120 8 176 -20 238 -20C389 -20 465 110 465 366C465 585 400 689 263 689ZM245 654C342 654 381 556 381 316C381 103 343 15 251 15C154 15 113 116 113 360C113 571 150 654 245 654Z" stroke="rgb(0,0,0)" stroke-opacity="1" stroke-width="8" fill="rgb(0,0,0)" fill-opacity="1"></path></g></g><g><g transform="matrix(1,0,0,1,101.25,260.28125)"><path transform="matrix(0.017,0,0,-0.017,0,0)" d="M65 302L65 243L1330 243L1205 91L1237 57L1444 274L1237 488L1205 454L1330 302Z" stroke="rgb(0,0,0)" stroke-opacity="1" stroke-width="8" fill="rgb(0,0,0)" fill-opacity="1"></path></g></g><g><g transform="matrix(1,0,0,1,132.07293701171875,260.28125)"><path transform="matrix(0.017,0,0,-0.017,0,0)" d="M399 311C399 357 404 398 413 434C381 478 338 497 293 497C169 497 25 361 25 224C25 219 26 215 26 210C26 75 121 -20 255 -20C307 -20 382 -1 392 14L413 46L403 61C366 41 334 32 298 32C187 32 114 118 114 250C114 357 164 417 254 417C298 417 346 397 364 372L371 311ZM722 469C576 469 475 366 475 217C475 76 564 -20 693 -20C847 -20 957 87 957 237C957 372 859 469 722 469ZM704 436C796 436 864 336 864 200C864 85 813 13 732 13C634 13 568 109 568 251C568 371 616 436 704 436ZM1011 661L1067 661C1085 661 1092 650 1092 620L1092 102C1092 39 1089 32 1055 30L1009 27L1009 -3C1109 0 1109 0 1135 0C1163 0 1168 0 1257 -3L1257 27L1213 30C1179 32 1176 39 1176 102L1176 240L1441 -12L1537 17L1537 40C1513 40 1484 57 1452 88L1262 281L1391 382C1436 417 1463 429 1495 429L1499 429L1499 459L1399 459L1176 261L1176 718L1167 726C1123 709 1090 701 1011 689ZM1793 -20C1858 -20 1948 18 1960 36L1980 70L1967 80C1903 42 1880 33 1837 33C1772 33 1718 62 1690 111C1671 144 1664 172 1662 230C1683 227 1713 226 1747 226C1833 226 1942 234 1989 244C1990 258 1991 267 1991 279C1991 394 1917 469 1805 469C1768 469 1723 464 1683 440C1601 392 1569 323 1569 219C1569 25 1704 -20 1793 -20ZM1902 267C1878 264 1827 261 1776 261C1733 261 1690 264 1664 270C1664 317 1668 339 1681 365C1702 409 1745 436 1793 436C1826 436 1852 423 1870 396C1892 363 1899 334 1902 267ZM2044 400L2081 400C2121 400 2125 393 2125 327L2125 102C2125 39 2122 32 2088 30L2042 27L2042 -3C2114 -1 2140 0 2165 0C2185 0 2185 0 2308 -3L2308 27L2256 30C2211 33 2209 36 2209 102L2209 274C2209 334 2249 384 2298 384C2328 384 2349 370 2365 338L2386 338L2395 458C2384 465 2366 469 2348 469C2318 469 2286 453 2265 428L2209 362L2209 465L2200 469C2149 448 2097 434 2044 428Z" stroke="rgb(0,0,0)" stroke-opacity="1" stroke-width="8" fill="rgb(0,0,0)" fill-opacity="1"></path></g></g><g><g><g><g><g transform="matrix(1,0,0,1,174.10418701171875,254.25418701171876)"><path transform="matrix(0.0119,0,0,-0.0119,0,0)" d="M263 689C108 689 29 566 29 324C29 207 50 106 85 57C120 8 176 -20 238 -20C389 -20 465 110 465 366C465 585 400 689 263 689ZM245 654C342 654 381 556 381 316C381 103 343 15 251 15C154 15 113 116 113 360C113 571 150 654 245 654Z" stroke="rgb(0,0,0)" stroke-opacity="1" stroke-width="8" fill="rgb(0,0,0)" fill-opacity="1"></path></g></g></g></g></g><g><g><g><g><g transform="matrix(1,0,0,1,196.375,242.9)"><path transform="matrix(0.0119,0,0,-0.0119,0,0)" d="M148 254C148 224 162 200 192 181L213 195C197 214 191 227 191 243C191 276 204 293 285 366C370 444 395 483 395 540C395 627 316 694 213 694C169 694 134 685 81 659L43 546L72 538L92 586C103 613 134 628 179 628C251 628 302 583 302 519C302 416 148 344 148 254ZM198 111C168 111 141 83 141 53C141 23 168 -5 197 -5C229 -5 257 22 257 53C257 83 229 111 198 111Z" stroke="rgb(0,0,0)" stroke-opacity="1" stroke-width="8" fill="rgb(0,0,0)" fill-opacity="1"></path></g></g></g></g><g><g><g><g transform="matrix(1,0,0,1,186.14581298828125,260.28125)"><path transform="matrix(0.017,0,0,-0.017,0,0)" d="M65 302L65 243L1330 243L1205 91L1237 57L1444 274L1237 488L1205 454L1330 302Z" stroke="rgb(0,0,0)" stroke-opacity="1" stroke-width="8" fill="rgb(0,0,0)" fill-opacity="1"></path></g></g></g></g></g><g><g transform="matrix(1,0,0,1,216.96875,260.28125)"><path transform="matrix(0.017,0,0,-0.017,0,0)" d="M399 311C399 357 404 398 413 434C381 478 338 497 293 497C169 497 25 361 25 224C25 219 26 215 26 210C26 75 121 -20 255 -20C307 -20 382 -1 392 14L413 46L403 61C366 41 334 32 298 32C187 32 114 118 114 250C114 357 164 417 254 417C298 417 346 397 364 372L371 311ZM722 469C576 469 475 366 475 217C475 76 564 -20 693 -20C847 -20 957 87 957 237C957 372 859 469 722 469ZM704 436C796 436 864 336 864 200C864 85 813 13 732 13C634 13 568 109 568 251C568 371 616 436 704 436ZM1011 661L1067 661C1085 661 1092 650 1092 620L1092 102C1092 39 1089 32 1055 30L1009 27L1009 -3C1109 0 1109 0 1135 0C1163 0 1168 0 1257 -3L1257 27L1213 30C1179 32 1176 39 1176 102L1176 240L1441 -12L1537 17L1537 40C1513 40 1484 57 1452 88L1262 281L1391 382C1436 417 1463 429 1495 429L1499 429L1499 459L1399 459L1176 261L1176 718L1167 726C1123 709 1090 701 1011 689ZM1793 -20C1858 -20 1948 18 1960 36L1980 70L1967 80C1903 42 1880 33 1837 33C1772 33 1718 62 1690 111C1671 144 1664 172 1662 230C1683 227 1713 226 1747 226C1833 226 1942 234 1989 244C1990 258 1991 267 1991 279C1991 394 1917 469 1805 469C1768 469 1723 464 1683 440C1601 392 1569 323 1569 219C1569 25 1704 -20 1793 -20ZM1902 267C1878 264 1827 261 1776 261C1733 261 1690 264 1664 270C1664 317 1668 339 1681 365C1702 409 1745 436 1793 436C1826 436 1852 423 1870 396C1892 363 1899 334 1902 267ZM2044 400L2081 400C2121 400 2125 393 2125 327L2125 102C2125 39 2122 32 2088 30L2042 27L2042 -3C2114 -1 2140 0 2165 0C2185 0 2185 0 2308 -3L2308 27L2256 30C2211 33 2209 36 2209 102L2209 274C2209 334 2249 384 2298 384C2328 384 2349 370 2365 338L2386 338L2395 458C2384 465 2366 469 2348 469C2318 469 2286 453 2265 428L2209 362L2209 465L2200 469C2149 448 2097 434 2044 428Z" stroke="rgb(0,0,0)" stroke-opacity="1" stroke-width="8" fill="rgb(0,0,0)" fill-opacity="1"></path></g></g><g><g><g><g><g transform="matrix(1,0,0,1,259,254.25418701171876)"><path transform="matrix(0.0119,0,0,-0.0119,0,0)" d="M418 -3L418 27L366 30C311 33 301 44 301 96L301 700L60 598L67 548L217 614L217 96C217 44 206 33 152 30L96 27L96 -3C250 0 250 0 261 0C292 0 402 -3 418 -3Z" stroke="rgb(0,0,0)" stroke-opacity="1" stroke-width="8" fill="rgb(0,0,0)" fill-opacity="1"></path></g></g></g></g></g><g><g><g><g><g transform="matrix(1,0,0,1,281.27081298828125,242.9)"><path transform="matrix(0.0119,0,0,-0.0119,0,0)" d="M148 254C148 224 162 200 192 181L213 195C197 214 191 227 191 243C191 276 204 293 285 366C370 444 395 483 395 540C395 627 316 694 213 694C169 694 134 685 81 659L43 546L72 538L92 586C103 613 134 628 179 628C251 628 302 583 302 519C302 416 148 344 148 254ZM198 111C168 111 141 83 141 53C141 23 168 -5 197 -5C229 -5 257 22 257 53C257 83 229 111 198 111Z" stroke="rgb(0,0,0)" stroke-opacity="1" stroke-width="8" fill="rgb(0,0,0)" fill-opacity="1"></path></g></g></g></g><g><g><g><g transform="matrix(1,0,0,1,271.04168701171875,260.28125)"><path transform="matrix(0.017,0,0,-0.017,0,0)" d="M65 302L65 243L1330 243L1205 91L1237 57L1444 274L1237 488L1205 454L1330 302Z" stroke="rgb(0,0,0)" stroke-opacity="1" stroke-width="8" fill="rgb(0,0,0)" fill-opacity="1"></path></g></g></g></g></g><g><g transform="matrix(1,0,0,1,306.95831298828125,260.28125)"><path transform="matrix(0.017,0,0,-0.017,0,0)" d="M499 329C469 329 442 301 442 271C442 241 469 213 498 213C530 213 558 240 558 271C558 301 530 329 499 329ZM166 329C136 329 109 301 109 271C109 241 136 213 165 213C197 213 225 240 225 271C225 301 197 329 166 329ZM832 329C802 329 775 301 775 271C775 241 802 213 831 213C863 213 891 240 891 271C891 301 863 329 832 329Z" stroke="rgb(0,0,0)" stroke-opacity="1" stroke-width="8" fill="rgb(0,0,0)" fill-opacity="1"></path></g></g><g><g><g><g><g transform="matrix(1,0,0,1,344.375,242.9)"><path transform="matrix(0.0119,0,0,-0.0119,0,0)" d="M148 254C148 224 162 200 192 181L213 195C197 214 191 227 191 243C191 276 204 293 285 366C370 444 395 483 395 540C395 627 316 694 213 694C169 694 134 685 81 659L43 546L72 538L92 586C103 613 134 628 179 628C251 628 302 583 302 519C302 416 148 344 148 254ZM198 111C168 111 141 83 141 53C141 23 168 -5 197 -5C229 -5 257 22 257 53C257 83 229 111 198 111Z" stroke="rgb(0,0,0)" stroke-opacity="1" stroke-width="8" fill="rgb(0,0,0)" fill-opacity="1"></path></g></g></g></g><g><g><g><g transform="matrix(1,0,0,1,334.14581298828125,260.28125)"><path transform="matrix(0.017,0,0,-0.017,0,0)" d="M65 302L65 243L1330 243L1205 91L1237 57L1444 274L1237 488L1205 454L1330 302Z" stroke="rgb(0,0,0)" stroke-opacity="1" stroke-width="8" fill="rgb(0,0,0)" fill-opacity="1"></path></g></g></g></g></g><g><g transform="matrix(1,0,0,1,364.96875,260.28125)"><path transform="matrix(0.017,0,0,-0.017,0,0)" d="M399 311C399 357 404 398 413 434C381 478 338 497 293 497C169 497 25 361 25 224C25 219 26 215 26 210C26 75 121 -20 255 -20C307 -20 382 -1 392 14L413 46L403 61C366 41 334 32 298 32C187 32 114 118 114 250C114 357 164 417 254 417C298 417 346 397 364 372L371 311ZM722 469C576 469 475 366 475 217C475 76 564 -20 693 -20C847 -20 957 87 957 237C957 372 859 469 722 469ZM704 436C796 436 864 336 864 200C864 85 813 13 732 13C634 13 568 109 568 251C568 371 616 436 704 436ZM1011 661L1067 661C1085 661 1092 650 1092 620L1092 102C1092 39 1089 32 1055 30L1009 27L1009 -3C1109 0 1109 0 1135 0C1163 0 1168 0 1257 -3L1257 27L1213 30C1179 32 1176 39 1176 102L1176 240L1441 -12L1537 17L1537 40C1513 40 1484 57 1452 88L1262 281L1391 382C1436 417 1463 429 1495 429L1499 429L1499 459L1399 459L1176 261L1176 718L1167 726C1123 709 1090 701 1011 689ZM1793 -20C1858 -20 1948 18 1960 36L1980 70L1967 80C1903 42 1880 33 1837 33C1772 33 1718 62 1690 111C1671 144 1664 172 1662 230C1683 227 1713 226 1747 226C1833 226 1942 234 1989 244C1990 258 1991 267 1991 279C1991 394 1917 469 1805 469C1768 469 1723 464 1683 440C1601 392 1569 323 1569 219C1569 25 1704 -20 1793 -20ZM1902 267C1878 264 1827 261 1776 261C1733 261 1690 264 1664 270C1664 317 1668 339 1681 365C1702 409 1745 436 1793 436C1826 436 1852 423 1870 396C1892 363 1899 334 1902 267ZM2044 400L2081 400C2121 400 2125 393 2125 327L2125 102C2125 39 2122 32 2088 30L2042 27L2042 -3C2114 -1 2140 0 2165 0C2185 0 2185 0 2308 -3L2308 27L2256 30C2211 33 2209 36 2209 102L2209 274C2209 334 2249 384 2298 384C2328 384 2349 370 2365 338L2386 338L2395 458C2384 465 2366 469 2348 469C2318 469 2286 453 2265 428L2209 362L2209 465L2200 469C2149 448 2097 434 2044 428Z" stroke="rgb(0,0,0)" stroke-opacity="1" stroke-width="8" fill="rgb(0,0,0)" fill-opacity="1"></path></g></g><g><g><g><g><g transform="matrix(1,0,0,1,407,254.25418701171876)"><path transform="matrix(0.0119,0,0,-0.0119,0,0)" d="M240 722L228 733C176 707 140 698 68 691L64 670L112 670C136 670 146 663 146 646C146 638 145 629 144 622L96 354C82 279 66 210 14 1L23 -9L90 8L113 132C122 180 146 225 180 259C249 59 281 -9 306 -9C319 -9 343 4 387 35L433 67L425 86L382 62C368 54 361 52 353 52C343 52 336 58 327 75C292 139 270 193 231 316L245 330C306 391 352 416 402 416C410 416 421 414 438 410L455 473C437 479 419 482 407 482C341 482 258 405 133 230Z" stroke="rgb(0,0,0)" stroke-opacity="1" stroke-width="8" fill="rgb(0,0,0)" fill-opacity="1"></path></g></g></g></g></g><g><g><g><g><g transform="matrix(1,0,0,1,428.90625,242.9)"><path transform="matrix(0.0119,0,0,-0.0119,0,0)" d="M148 254C148 224 162 200 192 181L213 195C197 214 191 227 191 243C191 276 204 293 285 366C370 444 395 483 395 540C395 627 316 694 213 694C169 694 134 685 81 659L43 546L72 538L92 586C103 613 134 628 179 628C251 628 302 583 302 519C302 416 148 344 148 254ZM198 111C168 111 141 83 141 53C141 23 168 -5 197 -5C229 -5 257 22 257 53C257 83 229 111 198 111Z" stroke="rgb(0,0,0)" stroke-opacity="1" stroke-width="8" fill="rgb(0,0,0)" fill-opacity="1"></path></g></g></g></g><g><g><g><g transform="matrix(1,0,0,1,418.67706298828125,260.28125)"><path transform="matrix(0.017,0,0,-0.017,0,0)" d="M65 302L65 243L1330 243L1205 91L1237 57L1444 274L1237 488L1205 454L1330 302Z" stroke="rgb(0,0,0)" stroke-opacity="1" stroke-width="8" fill="rgb(0,0,0)" fill-opacity="1"></path></g></g></g></g></g><g><g transform="matrix(1,0,0,1,449.5,260.28125)"><path transform="matrix(0.017,0,0,-0.017,0,0)" d="M399 311C399 357 404 398 413 434C381 478 338 497 293 497C169 497 25 361 25 224C25 219 26 215 26 210C26 75 121 -20 255 -20C307 -20 382 -1 392 14L413 46L403 61C366 41 334 32 298 32C187 32 114 118 114 250C114 357 164 417 254 417C298 417 346 397 364 372L371 311ZM722 469C576 469 475 366 475 217C475 76 564 -20 693 -20C847 -20 957 87 957 237C957 372 859 469 722 469ZM704 436C796 436 864 336 864 200C864 85 813 13 732 13C634 13 568 109 568 251C568 371 616 436 704 436ZM1011 661L1067 661C1085 661 1092 650 1092 620L1092 102C1092 39 1089 32 1055 30L1009 27L1009 -3C1109 0 1109 0 1135 0C1163 0 1168 0 1257 -3L1257 27L1213 30C1179 32 1176 39 1176 102L1176 240L1441 -12L1537 17L1537 40C1513 40 1484 57 1452 88L1262 281L1391 382C1436 417 1463 429 1495 429L1499 429L1499 459L1399 459L1176 261L1176 718L1167 726C1123 709 1090 701 1011 689ZM1793 -20C1858 -20 1948 18 1960 36L1980 70L1967 80C1903 42 1880 33 1837 33C1772 33 1718 62 1690 111C1671 144 1664 172 1662 230C1683 227 1713 226 1747 226C1833 226 1942 234 1989 244C1990 258 1991 267 1991 279C1991 394 1917 469 1805 469C1768 469 1723 464 1683 440C1601 392 1569 323 1569 219C1569 25 1704 -20 1793 -20ZM1902 267C1878 264 1827 261 1776 261C1733 261 1690 264 1664 270C1664 317 1668 339 1681 365C1702 409 1745 436 1793 436C1826 436 1852 423 1870 396C1892 363 1899 334 1902 267ZM2044 400L2081 400C2121 400 2125 393 2125 327L2125 102C2125 39 2122 32 2088 30L2042 27L2042 -3C2114 -1 2140 0 2165 0C2185 0 2185 0 2308 -3L2308 27L2256 30C2211 33 2209 36 2209 102L2209 274C2209 334 2249 384 2298 384C2328 384 2349 370 2365 338L2386 338L2395 458C2384 465 2366 469 2348 469C2318 469 2286 453 2265 428L2209 362L2209 465L2200 469C2149 448 2097 434 2044 428Z" stroke="rgb(0,0,0)" stroke-opacity="1" stroke-width="8" fill="rgb(0,0,0)" fill-opacity="1"></path></g></g><g><g><g><g><g transform="matrix(1,0,0,1,491.53125,253.5875)"><path transform="matrix(0.0119,0,0,-0.0119,0,0)" d="M240 722L228 733C176 707 140 698 68 691L64 670L112 670C136 670 146 663 146 646C146 638 145 629 144 622L96 354C82 279 66 210 14 1L23 -9L90 8L113 132C122 180 146 225 180 259C249 59 281 -9 306 -9C319 -9 343 4 387 35L433 67L425 86L382 62C368 54 361 52 353 52C343 52 336 58 327 75C292 139 270 193 231 316L245 330C306 391 352 416 402 416C410 416 421 414 438 410L455 473C437 479 419 482 407 482C341 482 258 405 133 230ZM1072 241L1072 300L832 300L832 538L773 538L773 300L533 300L533 241L773 241L773 0L832 0L832 241ZM1554 -3L1554 27L1502 30C1447 33 1437 44 1437 96L1437 700L1196 598L1203 548L1353 614L1353 96C1353 44 1342 33 1288 30L1232 27L1232 -3C1386 0 1386 0 1397 0C1428 0 1538 -3 1554 -3Z" stroke="rgb(0,0,0)" stroke-opacity="1" stroke-width="8" fill="rgb(0,0,0)" fill-opacity="1"></path></g></g></g></g></g><g><g transform="matrix(1,0,0,1,517.0833129882812,260.28125)"><path transform="matrix(0.017,0,0,-0.017,0,0)" d="M65 302L65 243L1330 243L1205 91L1237 57L1444 274L1237 488L1205 454L1330 302ZM2012 329C1982 329 1955 301 1955 271C1955 241 1982 213 2011 213C2043 213 2071 240 2071 271C2071 301 2043 329 2012 329ZM1679 329C1649 329 1622 301 1622 271C1622 241 1649 213 1678 213C1710 213 1738 240 1738 271C1738 301 1710 329 1679 329ZM2345 329C2315 329 2288 301 2288 271C2288 241 2315 213 2344 213C2376 213 2404 240 2404 271C2404 301 2376 329 2345 329ZM2578 302L2578 243L3843 243L3718 91L3750 57L3957 274L3750 488L3718 454L3843 302Z" stroke="rgb(0,0,0)" stroke-opacity="1" stroke-width="8" fill="rgb(0,0,0)" fill-opacity="1"></path></g></g><g><g transform="matrix(1,0,0,1,590.625,260.28125)"><path transform="matrix(0.017,0,0,-0.017,0,0)" d="M263 689C108 689 29 566 29 324C29 207 50 106 85 57C120 8 176 -20 238 -20C389 -20 465 110 465 366C465 585 400 689 263 689ZM245 654C342 654 381 556 381 316C381 103 343 15 251 15C154 15 113 116 113 360C113 571 150 654 245 654Z" stroke="rgb(0,0,0)" stroke-opacity="1" stroke-width="8" fill="rgb(0,0,0)" fill-opacity="1"></path></g></g></g></g></svg>
</svg>
