<?xml version="1.0" encoding="utf-8"?>
<svg xmlns="http://www.w3.org/2000/svg" style="margin: auto; display: block; shape-rendering: auto; background: none;" width="279" height="128" preserveAspectRatio="xMidYMid">
<style type="text/css">
  text {
    text-anchor: middle; font-size: 57px; opacity: 0;
  }
</style>
<g style="transform-origin:139.5px 64px;transform:scale(1)">
<g transform="translate(139.5,64)">
  <g transform="translate(0,0)"><g class="path" style="transform: matrix(1, 0, 0, 1, 0, 0); transform-origin: -79.125px -2.88067px; animation: 1s linear -0.55s infinite normal forwards running bounce-c96947db-bc04-422c-8d2c-86339abe46ba;"><path d="M8.18 0L23.49 0L23.49 0Q23.49-1.22 22.60-1.39L22.60-1.39L22.60-1.39Q22.32-1.45 22.04-1.45L22.04-1.45L18.26-1.45L18.26-31.95L21.49-31.95L21.49-31.95Q26.00-31.95 27.50-26.50L27.50-26.50L27.50-26.50Q27.50-26.27 27.55-26.16L27.55-26.16L28.44-22.43L30.00-22.43L29.72-33.40L2.23-33.40L1.95-22.43L3.51-22.43L4.40-26.16L4.40-26.16Q6.18-31.62 10.46-31.95L10.46-31.95L13.47-31.95L13.47-1.45L8.18-1.45L8.18 0" fill="#000000" stroke="none" stroke-width="none" transform="translate(-95.10000610351562,13.819334589640302)" style="fill: rgb(0, 0, 0);"></path></g><g class="path" style="transform: matrix(1, 0, 0, 1, 0, 0); transform-origin: -47.09px -4.27067px; animation: 1s linear -0.44s infinite normal forwards running bounce-c96947db-bc04-422c-8d2c-86339abe46ba;"><path d="M44.87-1.39L44.87-1.39L42.08-1.39L42.08-13.42L42.08-13.42Q42.08-18.48 45.59-20.76L45.59-20.76L45.59-20.76Q47.04-21.71 48.59-21.71L48.59-21.71L48.59-21.71Q51.99-21.71 53.33-18.54L53.33-18.54L53.33-18.54Q53.94-17.03 53.94-15.20L53.94-15.20L53.94-4.73L53.94-4.73Q53.94-2.17 52.71-1.67L52.71-1.67L52.71-1.67Q51.93-1.39 50.04-1.39L50.04-1.39L50.04 0L62.29 0L62.29 0Q62.29-1.22 61.45-1.34L61.45-1.34L61.45-1.34Q61.23-1.39 60.90-1.39L60.90-1.39L58.11-1.39L58.11-15.20L58.11-15.20Q58.11-21.26 54.11-23.43L54.11-23.43L54.11-23.43Q52.55-24.21 50.77-24.21L50.77-24.21L50.77-24.21Q46.65-24.21 43.86-21.21L43.86-21.21L43.86-21.21Q42.69-19.93 42.08-18.31L42.08-18.31L42.08-36.18L33.73-36.18L33.73-34.79L37.91-34.79L37.91-4.73L37.91-4.73Q37.91-2.17 36.46-1.67L36.46-1.67L36.46-1.67Q35.63-1.39 33.73-1.39L33.73-1.39L33.73 0L46.26 0L46.26 0Q46.26-1.22 45.42-1.34L45.42-1.34L45.42-1.34Q45.20-1.39 44.87-1.39" fill="#000000" stroke="none" stroke-width="none" transform="translate(-95.10000610351562,13.819334589640302)" style="fill: rgb(0, 0, 0);"></path></g><g class="path" style="transform: matrix(1, 0, 0, 1, 0, 0); transform-origin: -18.31px 1.99433px; animation: 1s linear -0.33s infinite normal forwards running bounce-c96947db-bc04-422c-8d2c-86339abe46ba;"><path d="M77.60-22.82L77.60-22.82L77.60-22.82Q81.49-22.82 82.77-19.54L82.77-19.54L82.77-19.54Q83.22-18.48 83.22-17.26L83.22-17.26L83.22-17.26Q83.22-14.47 80.55-13.86L80.55-13.86L80.55-13.86Q79.15-13.58 76.59-13.64L76.59-13.64L70.69-13.80L70.69-13.80Q70.97-20.21 74.87-22.15L74.87-22.15L74.87-22.15Q76.15-22.82 77.60-22.82zM87.28-5.34L87.28-5.34L85.89-5.84L85.89-5.84Q83.94-1.61 79.60-1.06L79.60-1.06L79.60-1.06Q79.04-1.00 78.54-1.00L78.54-1.00L78.54-1.00Q72.70-1.00 71.19-7.96L71.19-7.96L71.19-7.96Q70.75-9.91 70.69-12.25L70.69-12.25L77.37-12.13L77.37-12.13Q84.16-12.02 86.11-13.42L86.11-13.42L86.11-13.42Q87.62-14.53 87.62-16.59L87.62-16.59L87.62-16.59Q87.62-20.37 83.77-22.60L83.77-22.60L83.77-22.60Q81.05-24.21 77.48-24.21L77.48-24.21L77.48-24.21Q70.53-24.21 67.52-18.42L67.52-18.42L67.52-18.42Q65.96-15.42 65.96-11.63L65.96-11.63L65.96-11.63Q65.96-4.73 70.92-1.39L70.92-1.39L70.92-1.39Q73.87 0.56 77.65 0.56L77.65 0.56L77.65 0.56Q83.66 0.56 86.50-3.79L86.50-3.79L86.50-3.79Q86.95-4.56 87.28-5.34" fill="#000000" stroke="none" stroke-width="none" transform="translate(-95.10000610351562,13.819334589640302)" style="fill: rgb(0, 0, 0);"></path></g><g class="path" style="transform: matrix(1, 0, 0, 1, 0, 0); transform-origin: 20.51px -2.88067px; animation: 1s linear -0.22s infinite normal forwards running bounce-c96947db-bc04-422c-8d2c-86339abe46ba;"><path d="M127.47-23.38L128.58-23.38L128.31-33.40L102.64-33.40L102.64-31.95L107.10-31.95L107.10-1.45L102.64-1.45L102.64 0L128.31 0L128.58-10.02L127.47-10.02L126.69-7.40L126.69-7.40Q125.30-2.67 122.57-1.73L122.57-1.73L122.57-1.73Q121.74-1.45 120.79-1.45L120.79-1.45L111.88-1.45L111.88-16.42L123.35-16.42L123.35-18.04L111.88-18.04L111.88-31.95L120.79-31.95L120.79-31.95Q124.80-31.95 126.52-26.55L126.52-26.55L126.52-26.55Q126.64-26.22 126.69-26.00L126.69-26.00L127.47-23.38" fill="#000000" stroke="none" stroke-width="none" transform="translate(-95.10000610351562,13.819334589640302)" style="fill: rgb(0, 0, 0);"></path></g><g class="path" style="transform: matrix(1, 0, 0, 1, 0, 0); transform-origin: 52.215px 1.71433px; animation: 1s linear -0.11s infinite normal forwards running bounce-c96947db-bc04-422c-8d2c-86339abe46ba;"><path d="M143.89-1.39L143.89-1.39L141.39-1.39L141.39-13.42L141.39-13.42Q141.55-18.59 145.06-20.87L145.06-20.87L145.06-20.87Q146.56-21.82 148.12-21.82L148.12-21.82L148.12-21.82Q151.52-21.82 152.74-18.65L152.74-18.65L152.74-18.65Q153.24-17.37 153.24-15.75L153.24-15.75L153.24-4.73L153.24-4.73Q153.24-2.17 151.80-1.67L151.80-1.67L151.80-1.67Q150.96-1.39 149.07-1.39L149.07-1.39L149.07 0L161.59 0L161.59 0Q161.59-1.22 160.76-1.34L160.76-1.34L160.76-1.34Q160.54-1.39 160.20-1.39L160.20-1.39L157.42-1.39L157.42-15.20L157.42-15.20Q157.42-20.76 153.58-23.16L153.58-23.16L153.58-23.16Q151.80-24.21 149.74-24.21L149.74-24.21L149.74-24.21Q145.62-24.21 142.95-20.93L142.95-20.93L142.95-20.93Q141.94-19.65 141.33-18.09L141.33-18.09L141.11-23.66L133.04-23.66L133.04-22.27L137.21-22.27L137.21-4.73L137.21-4.73Q137.21-2.17 135.76-1.67L135.76-1.67L135.76-1.67Q134.93-1.39 133.04-1.39L133.04-1.39L133.04 0L145.28 0L145.28 0Q145.28-1.22 144.45-1.34L144.45-1.34L144.45-1.34Q144.23-1.39 143.89-1.39" fill="#000000" stroke="none" stroke-width="none" transform="translate(-95.10000610351562,13.819334589640302)" style="fill: rgb(0, 0, 0);"></path></g><g class="path" style="transform: matrix(1, 0, 0, 1, 0, 0); transform-origin: 83.58px -3.99067px; animation: 1s linear 0s infinite normal forwards running bounce-c96947db-bc04-422c-8d2c-86339abe46ba;"><path d="M183.75-5.90L184.19 0L192.15 0L192.15 0Q192.15-1.22 191.32-1.34L191.32-1.34L191.32-1.34Q191.09-1.39 190.76-1.39L190.76-1.39L187.98-1.39L187.87-36.18L178.40-36.18L178.40-34.79L183.69-34.79L183.69-21.21L183.69-21.21Q180.96-24.21 176.34-24.21L176.34-24.21L176.34-24.21Q170.22-24.21 167.10-18.76L167.10-18.76L167.10-18.76Q165.21-15.42 165.21-11.24L165.21-11.24L165.21-11.24Q165.21-4.34 169.55-1.17L169.55-1.17L169.55-1.17Q172.00 0.56 174.95 0.56L174.95 0.56L174.95 0.56Q181.02 0.45 183.75-5.90L183.75-5.90zM169.94-11.91L169.94-11.91L169.94-11.91Q169.94-19.76 174.17-22.10L174.17-22.10L174.17-22.10Q175.51-22.82 177.12-22.82L177.12-22.82L177.12-22.82Q181.19-22.82 182.91-18.48L182.91-18.48L182.91-18.48Q183.86-16.14 183.86-12.97L183.86-12.97L183.86-12.97Q183.86-6.29 180.52-3.28L180.52-3.28L180.52-3.28Q178.74-1.67 176.46-1.67L176.46-1.67L176.46-1.67Q171.89-1.67 170.50-7.24L170.50-7.24L170.50-7.24Q169.94-9.30 169.94-11.91" fill="#000000" stroke="none" stroke-width="none" transform="translate(-95.10000610351562,13.819334589640302)" style="fill: rgb(0, 0, 0);"></path></g></g>
</g>
</g>
<style id="bounce-c96947db-bc04-422c-8d2c-86339abe46ba" data-anikit="">@keyframes bounce-c96947db-bc04-422c-8d2c-86339abe46ba
{
  0% {
    animation-timing-function: cubic-bezier(0.1361,0.2514,0.2175,0.8786);
    transform: translate(0,0px) scaleY(1);
  }
  37% {
    animation-timing-function: cubic-bezier(0.7674,0.1844,0.8382,0.7157);
    transform: translate(0,-39.96px) scaleY(1);
  }
  72% {
    animation-timing-function: cubic-bezier(0.1118,0.2149,0.2172,0.941);
    transform: translate(0,0px) scaleY(1);
  }
  87% {
    animation-timing-function: cubic-bezier(0.7494,0.2259,0.8209,0.6963);
    transform: translate(0,19.900000000000002px) scaleY(0.602);
  }
  100% {
    transform: translate(0,0px) scaleY(1);
  }
}</style></svg>