<?xml version="1.0" encoding="utf-8"?>
<svg xmlns="http://www.w3.org/2000/svg" style="margin: auto; display: block; shape-rendering: auto; background: none;" width="279" height="53" preserveAspectRatio="xMidYMid">
<style type="text/css">
  text {
    text-anchor: middle; font-size: 57px; opacity: 0;
  }
</style>
<g style="transform-origin:139.5px 26.5px;transform:scale(1)">
<g transform="translate(139.5,26.5)">
  <g transform="translate(0,0)"><g class="path" style="transform: scale(0.91); transform-origin: -103.12px -3.564px; animation: 1s linear -0.565714s infinite normal forwards running breath-a8cb9016-d979-409f-8cec-60861c45aad2;"><path d="M32.01 0L32.45 0L43.47-31.95L46.26-31.95L46.26-33.40L37.24-33.40L37.24-31.95L41.69-31.95L32.95-5.68L23.99-31.95L28.50-31.95L28.50-33.40L18.93-33.40L22.71-22.71L16.87-5.79L7.46-31.95L11.97-31.95L11.97-33.40L-0.28-33.40L-0.28-31.95L3.01-31.95L13.25-3.34L13.25-3.34Q14.36-0.17 15.25 0.17L15.25 0.17L15.25 0.17Q15.59 0.28 15.92 0.28L15.92 0.28L16.37 0.28L23.60-20.15L29.56-3.34L29.56-3.34Q30.56-0.50 31.17-0.17L31.17-0.17L31.17-0.17Q31.51 0 32.01 0L32.01 0" fill="#000000" stroke="none" stroke-width="none" transform="translate(-126.1100263595581,12.995999461582723)" style="fill: rgb(0, 0, 0);"></path></g><g class="path" style="transform: scale(0.91); transform-origin: -64.66px -3.704px; animation: 1s linear -0.471429s infinite normal forwards running breath-a8cb9016-d979-409f-8cec-60861c45aad2;"><path d="M73.31-23.38L74.42-23.38L74.14-33.40L48.48-33.40L48.48-31.95L52.94-31.95L52.94-1.45L48.48-1.45L48.48 0L74.14 0L74.42-10.02L73.31-10.02L72.53-7.40L72.53-7.40Q71.14-2.67 68.41-1.73L68.41-1.73L68.41-1.73Q67.58-1.45 66.63-1.45L66.63-1.45L57.72-1.45L57.72-16.42L69.19-16.42L69.19-18.04L57.72-18.04L57.72-31.95L66.63-31.95L66.63-31.95Q70.64-31.95 72.36-26.55L72.36-26.55L72.36-26.55Q72.47-26.22 72.53-26.00L72.53-26.00L73.31-23.38" fill="#000000" stroke="none" stroke-width="none" transform="translate(-126.1100263595581,12.995999461582723)" style="fill: rgb(0, 0, 0);"></path></g><g class="path" style="transform: scale(0.91); transform-origin: -34.35px -3.704px; animation: 1s linear -0.377143s infinite normal forwards running breath-a8cb9016-d979-409f-8cec-60861c45aad2;"><path d="M79.43 0L103.81 0L104.09-11.13L102.98-11.13L102.03-7.40L102.03-7.40Q100.70-2.28 97.58-1.56L97.58-1.56L97.58-1.56Q96.91-1.45 96.30-1.45L96.30-1.45L88.67-1.45L88.67-31.95L93.35-31.95L93.35-33.40L79.43-33.40L79.43-31.95L83.89-31.95L83.89-1.45L79.43-1.45L79.43 0" fill="#000000" stroke="none" stroke-width="none" transform="translate(-126.1100263595581,12.995999461582723)" style="fill: rgb(0, 0, 0);"></path></g><g class="path" style="transform: scale(0.91); transform-origin: -3.95503px -3.704px; animation: 1s linear -0.282857s infinite normal forwards running breath-a8cb9016-d979-409f-8cec-60861c45aad2;"><path d="M135.15-2.56L135.15-2.56L135.15-2.56Q135.15-0.22 135.82 0.11L135.82 0.11L135.82 0.11Q136.21 0.28 136.88 0.28L136.88 0.28L136.88-10.24L135.54-10.24L135.54-10.24Q132.70-1.06 124.19-1.00L124.19-1.00L124.19-1.00Q116.95-1.00 114.33-8.29L114.33-8.29L114.33-8.29Q113.05-11.86 113.05-16.70L113.05-16.70L113.05-16.70Q113.05-27.11 118.79-30.84L118.79-30.84L118.79-30.84Q121.29-32.40 124.35-32.40L124.35-32.40L124.35-32.40Q131.31-32.40 134.43-25.83L134.43-25.83L134.43-25.83Q134.99-24.66 135.38-23.43L135.38-23.43L136.71-23.43L136.54-33.68L136.54-33.68Q135.32-33.68 135.04-32.90L135.04-32.90L135.04-32.90Q134.87-32.23 134.87-30.73L134.87-30.73L134.87-30.73Q133.26-32.34 129.36-33.34L129.36-33.34L129.36-33.34Q126.80-33.96 124.13-33.96L124.13-33.96L124.13-33.96Q115.34-33.96 110.66-27.44L110.66-27.44L110.66-27.44Q107.43-22.82 107.43-16.81L107.43-16.81L107.43-16.81Q107.43-9.52 111.94-4.56L111.94-4.56L111.94-4.56Q116.73 0.56 124.41 0.56L124.41 0.56L124.41 0.56Q130.03 0.50 135.15-2.56" fill="#000000" stroke="none" stroke-width="none" transform="translate(-126.1100263595581,12.995999461582723)" style="fill: rgb(0, 0, 0);"></path></g><g class="path" style="transform: scale(0.91); transform-origin: 32.89px -3.704px; animation: 1s linear -0.188571s infinite normal forwards running breath-a8cb9016-d979-409f-8cec-60861c45aad2;"><path d="M159.14-33.96L159.14-33.96L159.14-33.96Q152.46-33.96 147.68-29.56L147.68-29.56L147.68-29.56Q142.44-24.71 142.44-16.92L142.44-16.92L142.44-16.92Q142.44-7.90 148.62-3.01L148.62-3.01L148.62-3.01Q153.13 0.56 158.98 0.56L158.98 0.56L158.98 0.56Q165.54 0.56 170.28-3.90L170.28-3.90L170.28-3.90Q175.56-8.85 175.56-16.70L175.56-16.70L175.56-16.70Q175.56-25.88 169.16-30.67L169.16-30.67L169.16-30.67Q164.82-33.96 159.14-33.96zM159.14-1.00L159.14-1.00L159.14-1.00Q151.07-1.00 148.79-9.63L148.79-9.63L148.79-9.63Q148.01-12.69 148.01-16.70L148.01-16.70L148.01-16.70Q148.01-29.95 156.03-32.06L156.03-32.06L156.03-32.06Q157.42-32.40 158.98-32.40L158.98-32.40L158.98-32.40Q169.94-32.29 170.00-16.92L170.00-16.92L170.00-16.92Q170.00-4.79 163.26-1.84L163.26-1.84L163.26-1.84Q161.37-1.00 159.14-1.00" fill="#000000" stroke="none" stroke-width="none" transform="translate(-126.1100263595581,12.995999461582723)" style="fill: rgb(0, 0, 0);"></path></g><g class="path" style="transform: scale(0.91); transform-origin: 75.09px -3.564px; animation: 1s linear -0.0942857s infinite normal forwards running breath-a8cb9016-d979-409f-8cec-60861c45aad2;"><path d="M222.10-31.95L222.10-33.40L213.19-33.40L201.17-6.18L188.26-33.40L180.30-33.40L180.30-31.95L184.75-31.95L184.75-1.45L180.30-1.45L180.30 0L191.43 0L191.43 0Q191.43-1.22 190.54-1.39L190.54-1.39L190.54-1.39Q190.26-1.45 189.98-1.45L189.98-1.45L186.98-1.45L186.98-25.38L199.17 0.28L200.33 0.28L213.19-28.39L213.19-1.45L208.74-1.45L208.74 0L222.10 0L222.10 0Q222.10-1.22 221.21-1.39L221.21-1.39L221.21-1.39Q220.93-1.45 220.65-1.45L220.65-1.45L217.65-1.45L217.65-31.95L222.10-31.95" fill="#000000" stroke="none" stroke-width="none" transform="translate(-126.1100263595581,12.995999461582723)" style="fill: rgb(0, 0, 0);"></path></g><g class="path" style="transform: scale(0.91); transform-origin: 112.86px -3.704px; animation: 1s linear 0s infinite normal forwards running breath-a8cb9016-d979-409f-8cec-60861c45aad2;"><path d="M250.82-23.38L251.94-23.38L251.66-33.40L226.00-33.40L226.00-31.95L230.45-31.95L230.45-1.45L226.00-1.45L226.00 0L251.66 0L251.94-10.02L250.82-10.02L250.04-7.40L250.04-7.40Q248.65-2.67 245.92-1.73L245.92-1.73L245.92-1.73Q245.09-1.45 244.14-1.45L244.14-1.45L235.24-1.45L235.24-16.42L246.70-16.42L246.70-18.04L235.24-18.04L235.24-31.95L244.14-31.95L244.14-31.95Q248.15-31.95 249.88-26.55L249.88-26.55L249.88-26.55Q249.99-26.22 250.04-26.00L250.04-26.00L250.82-23.38" fill="#000000" stroke="none" stroke-width="none" transform="translate(-126.1100263595581,12.995999461582723)" style="fill: rgb(0, 0, 0);"></path></g></g>
</g>
</g>
<style id="breath-a8cb9016-d979-409f-8cec-60861c45aad2" data-anikit="">@keyframes breath-a8cb9016-d979-409f-8cec-60861c45aad2
{
  0% {
    animation-timing-function: cubic-bezier(0.9647,0.2413,-0.0705,0.7911);
    transform: scale(0.9099999999999999);
  }
  51% {
    animation-timing-function: cubic-bezier(0.9226,0.2631,-0.0308,0.7628);
    transform: scale(1.02994);
  }
  100% {
    transform: scale(0.9099999999999999);
  }
}</style></svg>